<svg width="20" height="20" viewBox="0 0 20 20" fill="none" xmlns="http://www.w3.org/2000/svg">
<path d="M17.6562 0.625H2.34375C1.05141 0.625 0 1.67641 0 2.96875V13.9062C0 15.1986 1.05141 16.25 2.34375 16.25H7.65625V17.0312C7.65625 17.462 7.30578 17.8125 6.875 17.8125H6.09375V19.375H13.9062V17.8125C13.6347 17.8125 13.3957 17.8125 13.125 17.8125C12.6942 17.8125 12.3438 17.462 12.3438 17.0312V16.25H17.6562C18.9486 16.25 20 15.1986 20 13.9062V2.96875C20 1.67641 18.9486 0.625 17.6562 0.625ZM10.9156 17.8125H9.08438C9.17109 17.568 9.21875 17.3051 9.21875 17.0312V16.25H10.7812V17.0312C10.7812 17.3051 10.8289 17.568 10.9156 17.8125ZM18.4375 13.9062C18.4375 14.337 18.087 14.6875 17.6562 14.6875H2.34375C1.91297 14.6875 1.5625 14.337 1.5625 13.9062V2.96875C1.5625 2.53797 1.91297 2.1875 2.34375 2.1875H17.6562C18.087 2.1875 18.4375 2.53797 18.4375 2.96875V13.9062Z" fill="white"/>
<path d="M6.62912 8.54289L5.6617 6.60809L4.26416 7.30687L7.12053 13.0196L9.04732 5.3125H15.4686V3.75H7.82732L6.62912 8.54289Z" fill="white"/>
<path d="M13.1249 6.55151L11.5624 8.11401L9.99986 6.55151L8.89502 7.65636L10.4575 9.21886L8.89502 10.7814L9.99986 11.8862L11.5624 10.3237L13.1249 11.8862L14.2297 10.7814L12.6672 9.21886L14.2297 7.65636L13.1249 6.55151Z" fill="white"/>
</svg>
