<svg width="20" height="20" viewBox="0 0 20 20" fill="none" xmlns="http://www.w3.org/2000/svg">
<path d="M17.6562 0H2.34375C1.05141 0 0 1.05141 0 2.34375V11.7188C0 13.0111 1.05141 14.0625 2.34375 14.0625H17.6562C18.9486 14.0625 20 13.0111 20 11.7188V2.34375C20 1.05141 18.9486 0 17.6562 0ZM18.4375 11.7188C18.4375 12.1495 18.087 12.5 17.6562 12.5H2.34375C1.91297 12.5 1.5625 12.1495 1.5625 11.7188V2.34375C1.5625 1.91297 1.91297 1.5625 2.34375 1.5625H17.6562C18.087 1.5625 18.4375 1.91297 18.4375 2.34375V11.7188Z" fill="white"/>
<path d="M16.0938 15.3125C15.0753 15.3125 14.2069 15.9657 13.8844 16.875H0V18.4375H13.8844C14.2069 19.3468 15.0753 20 16.0938 20C17.1122 20 17.9806 19.3468 18.3031 18.4375H20V16.875H18.3031C17.9806 15.9657 17.1122 15.3125 16.0938 15.3125ZM16.0938 18.4375C15.663 18.4375 15.3125 18.087 15.3125 17.6562C15.3125 17.2255 15.663 16.875 16.0938 16.875C16.5245 16.875 16.875 17.2255 16.875 17.6562C16.875 18.087 16.5245 18.4375 16.0938 18.4375Z" fill="white"/>
<path d="M10 5.93168C8.54891 4.5209 6.80238 3.125 3.75 3.125H2.96875V4.6875H3.75C4.02398 4.6875 4.28359 4.70074 4.53125 4.72535V9.33715C4.28359 9.36176 4.02398 9.375 3.75 9.375H2.96875V10.9375H3.75C6.80238 10.9375 8.54891 9.5416 10 8.13082C11.4511 9.5416 13.1976 10.9375 16.25 10.9375H17.0312V9.375H16.25C15.976 9.375 15.7164 9.36176 15.4688 9.33715V4.72535C15.7164 4.70074 15.976 4.6875 16.25 4.6875H17.0312V3.125H16.25C13.1976 3.125 11.4511 4.5209 10 5.93168ZM6.09375 5.08145C7.2091 5.49961 8.04848 6.21219 8.89008 7.03125C8.04844 7.85031 7.2091 8.56289 6.09375 8.98105V5.08145ZM13.9062 8.98105C12.7909 8.56289 11.9515 7.85031 11.1099 7.03125C11.9516 6.21219 12.7909 5.49961 13.9062 5.08145V8.98105Z" fill="white"/>
</svg>
