<svg width="20" height="20" viewBox="0 0 20 20" fill="none" xmlns="http://www.w3.org/2000/svg">
<path d="M17.6562 0.625H2.34375C1.05141 0.625 0 1.67641 0 2.96875V13.9062C0 15.1986 1.05141 16.25 2.34375 16.25H7.65625V17.8125H6.09375V19.375H13.9062V17.8125H12.3438V16.25H17.6562C18.9486 16.25 20 15.1986 20 13.9062V2.96875C20 1.67641 18.9486 0.625 17.6562 0.625ZM10.7812 17.8125H9.21875V16.25H10.7812V17.8125ZM18.4375 13.9062C18.4375 14.337 18.087 14.6875 17.6562 14.6875C17.0668 14.6875 2.93723 14.6875 2.34375 14.6875C1.91297 14.6875 1.5625 14.337 1.5625 13.9062V2.96875C1.5625 2.53797 1.91297 2.1875 2.34375 2.1875H17.6562C18.087 2.1875 18.4375 2.53797 18.4375 2.96875V13.9062Z" fill="white"/>
<path d="M6.09375 3.75V5.3125H7.65625V10.7812C7.65625 12.0736 8.70766 13.125 10 13.125C11.2923 13.125 12.3438 12.0736 12.3438 10.7812C12.3438 10.2588 12.3438 5.94715 12.3438 5.3125H13.9062V3.75C12.717 3.75 7.22711 3.75 6.09375 3.75ZM10.7812 10.7812C10.7812 11.212 10.4308 11.5625 10 11.5625C9.56922 11.5625 9.21875 11.212 9.21875 10.7812V8.4375H10.7812V10.7812ZM10.7812 6.875H9.21875V5.3125H10.7812V6.875Z" fill="white"/>
</svg>
