<svg width="20" height="20" viewBox="0 0 20 20" fill="none" xmlns="http://www.w3.org/2000/svg">
<path d="M18.4375 1.5625V14.8438C18.4375 15.3051 18.0167 15.4688 17.6562 15.4688H2.34375C1.98332 15.4688 1.5625 15.3051 1.5625 14.8438V1.5625H0V14.8438C0 16.0908 1.00762 17.0312 2.34375 17.0312H7.65625V17.6562C7.65625 18.087 7.30578 18.4375 6.875 18.4375H6.09375V20H13.9062V18.4375C13.6347 18.4375 13.3957 18.4375 13.125 18.4375C12.6942 18.4375 12.3438 18.087 12.3438 17.6562V17.0312H17.6562C18.9924 17.0312 20 16.0908 20 14.8438V1.5625H18.4375ZM10.9156 18.4375H9.08438C9.17109 18.193 9.21875 17.9301 9.21875 17.6562V17.0312H10.7812V17.6562C10.7812 17.9301 10.8289 18.193 10.9156 18.4375Z" fill="white"/>
<path d="M8.4375 12.0423V0H3.75V12.0423L6.09375 14.3861L8.4375 12.0423ZM6.875 1.5625V3.125H5.3125V1.5625H6.875ZM5.3125 4.6875H6.875V11.3952L6.09375 12.1764L5.3125 11.3952V4.6875Z" fill="white"/>
<path d="M16.25 0H10V14.0625H16.25V0ZM14.6875 12.5H11.5625V10.9375H13.125V9.375H11.5625V7.8125H13.125V6.25H11.5625V4.6875H13.125V3.125H11.5625V1.5625H14.6875V12.5Z" fill="white"/>
</svg>
