<svg width="20" height="20" viewBox="0 0 20 20" fill="none" xmlns="http://www.w3.org/2000/svg">
<path d="M17.6562 0H2.34375C1.05141 0 0 1.05141 0 2.34375V17.6562C0 18.9486 1.05141 20 2.34375 20H17.6562C18.9486 20 20 18.9486 20 17.6562V2.34375C20 1.05141 18.9486 0 17.6562 0ZM18.4375 2.34375V3.125H7.35785L6.5766 1.5625H17.6562C18.087 1.5625 18.4375 1.91297 18.4375 2.34375ZM2.34375 1.5625H4.82965L5.6109 3.125H1.5625V2.34375C1.5625 1.91297 1.91297 1.5625 2.34375 1.5625ZM17.6562 18.4375H2.34375C1.91297 18.4375 1.5625 18.087 1.5625 17.6562V4.6875H18.4375V17.6562C18.4375 18.087 18.087 18.4375 17.6562 18.4375Z" fill="white"/>
<path d="M2.00293 9.99994L4.53113 11.264V17.0312H15.4686V11.264L17.9968 9.99994L9.99988 6.00146L2.00293 9.99994ZM13.9061 15.4687H6.09363V12.0453L9.99988 13.9984L13.9061 12.0453V15.4687ZM9.99988 12.2515L5.49684 9.99994L9.99988 7.74842L14.5029 9.99994L9.99988 12.2515Z" fill="white"/>
</svg>
