<svg width="58" height="68" viewBox="0 0 58 68" fill="none" xmlns="http://www.w3.org/2000/svg">
<path fill-rule="evenodd" clip-rule="evenodd" d="M11.2861 52.2461L11.2847 41.5922H8.03397L5.65764 44.9216L3.25221 41.5936H0L0.00142163 52.2477H3.25215V45.9435L5.65759 49.2135L8.03391 45.942V52.2461H11.2861Z" fill="#1B1918"/>
<path fill-rule="evenodd" clip-rule="evenodd" d="M16.6764 48.0584H19.214L19.763 45.5266H16.675V44.2542H20.0317L20.6099 41.5908L13.4228 41.5922V52.2462L20.0303 52.2447L20.6099 49.5812L16.6764 49.5826V48.0584Z" fill="#1B1918"/>
<path fill-rule="evenodd" clip-rule="evenodd" d="M27.8261 46.621L30.8836 41.5892H27.1579L25.2275 45.5266H25.197V41.5908H21.9462V52.2447H25.1984V47.9238H25.2289L27.1971 52.168C28.4753 52.0508 29.739 51.9508 30.9708 51.8668L27.8261 46.621Z" fill="#1B1918"/>
<path fill-rule="evenodd" clip-rule="evenodd" d="M53.9076 13.9686L53.9062 13.97C53.607 14.578 53.3048 15.1845 52.9955 15.7867C52.6846 16.3874 52.3883 16.9954 52.092 17.6019L50.2924 21.228C49.9916 21.8317 49.6968 22.4397 49.3903 23.0404C49.0838 23.6411 48.7846 24.2476 48.4854 24.8527L48.0351 25.7603L47.5776 26.6636C47.2739 27.2658 46.9631 27.8651 46.6653 28.4716C46.3661 29.0767 46.0611 29.6788 45.7546 30.281C45.4467 30.8804 45.1373 31.4811 44.8192 32.076C44.5011 32.6724 44.199 33.276 43.8779 33.8694L42.9208 35.6558C42.5954 36.2493 42.2802 36.8457 41.9664 37.4435L41.0251 39.237L40.5589 40.1374L40.1188 41.048C39.8414 41.6212 39.5625 42.1929 39.2923 42.7704L38.9772 44.2528H36.9726L36.9741 51.5731C35.9326 51.6019 34.8272 51.6455 33.6768 51.7048V44.2542H31.1073L31.6709 41.5892H38.0053C37.9371 41.498 37.8674 41.4083 37.7948 41.3215C37.5914 41.0696 37.3953 40.8148 37.1817 40.5731C36.9697 40.3284 36.7649 40.0794 36.5441 39.8435C36.3262 39.6046 36.1098 39.3644 35.8818 39.1357C35.6552 38.9054 35.4344 38.6695 35.2019 38.4437C34.971 38.2179 34.7415 37.9907 34.5048 37.7692L33.7916 37.112L33.0653 36.4694C32.8213 36.2579 32.5714 36.0523 32.3245 35.844C32.079 35.634 31.8234 35.4357 31.5736 35.2316C31.3237 35.0275 31.0651 34.8335 30.811 34.6367C30.5568 34.4369 30.2954 34.2486 30.0367 34.0577C30.0296 34.0519 30.0222 34.0475 30.015 34.0417C30.0862 33.7536 30.1486 33.4483 30.2023 33.1255C30.3185 33.2181 30.4333 33.3122 30.5452 33.4077C30.7979 33.6191 31.0506 33.8276 31.2961 34.0461C31.5416 34.2618 31.7914 34.4746 32.0311 34.6975C32.2707 34.9204 32.5177 35.136 32.753 35.3619C32.9897 35.5877 33.228 35.8106 33.4618 36.0393L34.1605 36.7255L34.8476 37.4247L35.523 38.1325C35.7496 38.367 35.966 38.6131 36.1882 38.852C36.4119 39.0894 36.6182 39.3427 36.8375 39.5844C37.0583 39.8248 37.2646 40.0794 37.4751 40.3284C37.6887 40.5745 37.8862 40.8366 38.0882 41.0928C38.2944 41.3461 38.4818 41.6168 38.6779 41.8787C38.7781 42.0091 38.8667 42.148 38.9568 42.2841L39.0308 42.3942C39.2574 41.8831 39.4797 41.3707 39.7019 40.8568C39.9706 40.2358 40.235 39.612 40.5138 38.9968L41.3316 37.138C41.6003 36.517 41.8734 35.8975 42.1552 35.2823L42.9992 33.4367C43.2809 32.8215 43.5714 32.2091 43.8663 31.6012C44.1583 30.9903 44.4604 30.3853 44.7625 29.7816C45.0675 29.178 45.374 28.5744 45.6877 27.975C45.9957 27.3729 46.3167 26.7779 46.6319 26.1787L47.1055 25.2812L47.5876 24.3881C47.9086 23.7931 48.2297 23.1982 48.5594 22.6076C48.8862 22.0141 49.2232 21.4278 49.5544 20.8372C49.8899 20.2495 50.2123 19.656 50.5639 19.0755L51.6068 17.3283C51.9598 16.7493 52.3011 16.1645 52.6787 15.6029C53.0375 15.0499 53.4021 14.5013 53.7696 13.9541C53.5096 13.7543 53.2133 13.6052 52.9024 13.4995C52.5756 13.3837 52.2357 13.3027 51.893 13.2433C51.2059 13.1246 50.5057 13.0726 49.8042 13.0595C49.1027 13.0435 48.3996 13.0595 47.6966 13.0971C46.9936 13.1362 46.2905 13.1869 45.589 13.2564C44.8874 13.3244 44.1858 13.4069 43.4857 13.4952C42.7856 13.5835 42.0855 13.6834 41.3883 13.7919C40.6911 13.9005 39.9924 14.0106 39.2981 14.1321L38.2551 14.3218C38.0198 14.3652 37.7831 14.4115 37.5493 14.4578L37.1251 15.3423C37.0961 15.4002 37.0685 15.4581 37.0409 15.516L36.5862 16.4902L35.4881 18.7846C35.4329 18.8974 35.3748 19.0118 35.3196 19.1262C35.0074 19.7747 34.6877 20.4203 34.3726 21.0674C33.9993 21.8287 33.6085 22.5829 33.2265 23.3415C33.0333 23.7193 32.8445 24.1 32.647 24.4749L32.0544 25.604L31.6883 26.2989C33.4619 20.0874 36.5412 13.0595 39.9837 12.9191C40.4862 12.8452 40.8741 12.7873 41.4391 12.7092C41.442 12.7092 41.4449 12.7078 41.4478 12.7078C42.8045 12.5688 44.1655 12.4558 45.5323 12.411C46.2499 12.3878 46.9674 12.3734 47.685 12.3893C48.404 12.4052 49.123 12.44 49.8391 12.5152C50.5566 12.5934 51.2727 12.7034 51.9728 12.8974C52.3214 12.9958 52.6672 13.1159 52.9969 13.2723C53.3266 13.4286 53.6389 13.6327 53.8945 13.8947C53.9148 13.915 53.9192 13.9454 53.9076 13.9686V13.9686Z" fill="#1B1918"/>
<path fill-rule="evenodd" clip-rule="evenodd" d="M55.2425 17.0664C55.2425 17.0664 55.0652 17.4948 54.7341 18.2302C54.5699 18.5993 54.3652 19.0437 54.1269 19.5533C53.8858 20.0599 53.6142 20.6331 53.3092 21.2527C53.1566 21.5624 52.9969 21.8853 52.8327 22.2182C52.6628 22.5511 52.4899 22.8943 52.3099 23.246C51.9539 23.9538 51.5646 24.6906 51.155 25.4506C50.7411 26.2076 50.3024 26.985 49.8521 27.771C49.4048 28.5599 48.9516 29.3605 48.497 30.1624C47.5949 31.7677 46.6929 33.373 45.8475 34.8771C45.4234 35.6297 45.0137 36.3564 44.6259 37.0455C44.2352 37.7345 43.8663 38.3844 43.5249 38.9852C42.9323 40.0259 42.424 40.9162 42.039 41.5893L47.7954 41.5879L47.2173 44.2514L43.8619 44.2528V45.5252H46.95L46.401 48.054L43.8619 48.0555V49.5797L47.7968 49.5783L47.2245 52.2071C47.0531 52.1579 46.873 52.1259 46.6885 52.1115C46.3356 52.084 45.984 52.0579 45.6311 52.0362C45.4234 51.8842 45.1823 51.7786 44.9179 51.7337C44.1452 51.6049 42.6273 51.5281 40.6112 51.5223L40.6098 42.8574C40.8539 42.9326 41.1255 42.8689 41.2969 42.5765C41.4857 42.2552 41.6527 41.9251 41.8111 41.5892L41.8662 41.5906C42.2221 40.8915 42.7029 39.9519 43.2665 38.846C43.5817 38.2323 43.9231 37.5663 44.2833 36.8629C44.6479 36.1593 45.0299 35.4182 45.4279 34.6524C46.2224 33.1195 47.0693 31.4852 47.9175 29.8509C48.3387 29.0317 48.7585 28.2123 49.1725 27.406C49.5835 26.5983 49.9932 25.8065 50.3998 25.0451C50.8109 24.2865 51.2133 23.5556 51.6084 22.8708C51.8059 22.5264 51.9976 22.1934 52.1821 21.8692C52.371 21.5493 52.5539 21.2395 52.7283 20.9413C53.0797 20.3449 53.4095 19.8049 53.7029 19.3244C53.9963 18.8467 54.2563 18.4312 54.4742 18.091C54.9085 17.4093 55.17 17.0271 55.17 17.0271C55.183 17.0082 55.2092 17.0039 55.2281 17.017C55.244 17.0271 55.2498 17.0488 55.2426 17.0662L55.2425 17.0664Z" fill="#1B1918"/>
<path fill-rule="evenodd" clip-rule="evenodd" d="M15.1164 61.8217C15.1236 61.9375 15.1295 62.0563 15.1323 62.1807C15.1323 62.298 15.1295 62.395 15.1207 62.4717C15.1164 62.5309 15.1062 62.5961 15.0888 62.6657C15.0699 62.7366 15.0423 62.8176 15.0031 62.9102C14.9711 62.9914 14.9493 63.042 14.9363 63.0623C14.9 63.1201 14.8593 63.1839 14.8157 63.2505C14.7765 63.3011 14.7228 63.3633 14.6545 63.4357C14.579 63.511 14.5238 63.5646 14.4904 63.5964C14.4613 63.6196 14.4061 63.6572 14.3262 63.7079C14.2231 63.7729 14.136 63.8223 14.0634 63.8585C13.9921 63.8961 13.9383 63.9221 13.8991 63.9381C13.8367 63.9612 13.7408 63.9988 13.6101 64.0509C13.5187 64.0886 13.4256 64.1219 13.3312 64.1508C13.2194 64.1754 13.1395 64.1928 13.0916 64.203C13.0175 64.2102 12.9521 64.216 12.8955 64.2204C12.8635 64.2276 12.8083 64.2262 12.7313 64.219C12.6544 64.2104 12.5628 64.1973 12.4582 64.1785C12.3726 64.164 12.3013 64.1466 12.2462 64.125C12.1823 64.0974 12.1155 64.0656 12.0501 64.0294C11.9644 63.9816 11.8729 63.9267 11.7756 63.8644C11.6898 63.8166 11.6347 63.7789 11.6114 63.75C11.5592 63.7037 11.5083 63.6603 11.4575 63.6212C11.4255 63.5864 11.3688 63.5372 11.2875 63.4706C11.2323 63.4156 11.1801 63.349 11.1292 63.268C11.0581 63.1753 10.9999 63.0957 10.9519 63.0321C10.9273 62.9959 10.9055 62.9539 10.8866 62.9076C10.8489 62.8076 10.7995 62.6976 10.7385 62.5774C10.6804 62.4645 10.6208 62.3415 10.5569 62.204C10.4828 62.0622 10.4334 61.9652 10.4044 61.913C10.4 61.8885 10.387 61.8493 10.3666 61.7958C10.3332 61.7205 10.3056 61.6511 10.2839 61.5888C10.2751 61.5497 10.2505 61.476 10.2098 61.3674C10.1807 61.2732 10.1575 61.1879 10.14 61.1083C10.1226 61.0285 10.1052 60.949 10.0878 60.8694C10.0747 60.7724 10.0645 60.6899 10.0587 60.6247C10.0485 60.5769 10.0398 60.5119 10.0355 60.4307C10.0297 60.3483 10.0282 60.2773 10.0326 60.218C10.0355 60.1586 10.0499 60.0689 10.0732 59.9473C10.0935 59.8083 10.1124 59.6925 10.1342 59.5955C10.1502 59.5174 10.1691 59.4508 10.1909 59.3958C10.2243 59.3219 10.2577 59.2539 10.2897 59.1931C10.3231 59.1309 10.3681 59.0513 10.4247 58.95C10.4828 58.85 10.5467 58.7531 10.6179 58.6575C10.6891 58.5635 10.7443 58.4925 10.7849 58.4461C10.8256 58.3999 10.8649 58.3564 10.907 58.3144C10.9476 58.271 11.0028 58.2218 11.074 58.1654C11.1234 58.1204 11.1626 58.0915 11.1931 58.0771C11.2367 58.0495 11.2861 58.0235 11.3384 57.9945C11.3921 57.9743 11.4429 57.9555 11.488 57.9367C11.5606 57.9207 11.6333 57.9005 11.7073 57.8759C11.7814 57.8527 11.8671 57.8295 11.963 57.8077C11.9702 57.8063 11.9818 57.8035 11.9978 57.8006C12.0661 57.8439 12.1372 57.8787 12.2098 57.9047L12.4219 57.9583C12.5818 57.9989 12.7487 58.0365 12.9245 58.0743C13.0363 58.09 13.1206 58.1132 13.1773 58.1436C13.3066 58.1986 13.4155 58.2378 13.5041 58.2594C13.5491 58.2754 13.6102 58.2986 13.6842 58.3332C13.7583 58.3666 13.8251 58.4028 13.8832 58.439C13.8905 58.4375 13.8991 58.4404 13.9094 58.4461C13.9325 58.4751 13.9529 58.5113 13.9718 58.5577C14.0241 58.6459 14.0851 58.7502 14.1534 58.8688C14.2144 58.9558 14.271 59.044 14.3248 59.1367C14.3785 59.2293 14.4279 59.3205 14.4729 59.4116C14.5325 59.5318 14.5978 59.6346 14.6661 59.7185C14.6791 59.7417 14.6951 59.7751 14.714 59.8213C14.7489 59.9053 14.7765 59.9906 14.7954 60.0791C14.8303 60.1962 14.8622 60.3064 14.8927 60.4076C14.9145 60.5031 14.9334 60.5915 14.9508 60.6711C14.9683 60.7492 14.9871 60.8332 15.006 60.9216C15.0205 61.0257 15.0322 61.1197 15.0423 61.2009C15.0583 61.2718 15.0714 61.3616 15.0815 61.4672C15.0931 61.573 15.1033 61.6916 15.1164 61.8219V61.8217Z" fill="#E10028"/>
<path fill-rule="evenodd" clip-rule="evenodd" d="M41.0702 54.2733C41.0556 54.2429 41.0397 54.2095 41.0237 54.1705C40.9946 54.1183 40.9583 54.0692 40.9148 54.0199C40.9031 54.0055 40.8814 53.9852 40.8508 53.9591C40.8101 53.9258 40.7767 53.9042 40.7491 53.894C40.694 53.8722 40.6344 53.852 40.572 53.8318C40.5444 53.8216 40.5124 53.8114 40.4775 53.8028C40.4267 53.797 40.3512 53.797 40.2524 53.8014C40.1914 53.7984 40.1507 53.7984 40.126 53.8042C40.081 53.8231 40.0345 53.8404 39.988 53.8593C39.9256 53.881 39.8646 53.907 39.805 53.9374C39.7498 53.9578 39.6714 53.9998 39.5683 54.0634C39.4593 54.1372 39.362 54.2037 39.2748 54.2647C39.224 54.3009 39.1921 54.3283 39.1789 54.3485C39.1616 54.3775 39.1426 54.4108 39.1267 54.4485C39.1034 54.4948 39.0816 54.5526 39.0642 54.6236C39.0512 54.6772 39.0366 54.7264 39.0221 54.7713C39.1238 54.7814 39.2094 54.8089 39.2777 54.8523L39.4041 54.9131C39.4797 54.9536 39.5596 54.9957 39.6438 55.0347C39.7207 55.0766 39.8268 55.1244 39.9648 55.178C40.0549 55.2084 40.1188 55.2316 40.1551 55.249C40.1987 55.2562 40.2408 55.259 40.2829 55.2576C40.3265 55.2648 40.373 55.2678 40.4223 55.2648C40.4558 55.2665 40.5051 55.259 40.5691 55.246C40.6025 55.246 40.6271 55.246 40.6431 55.2418C40.6736 55.2272 40.7056 55.2026 40.7404 55.1708C40.7695 55.1476 40.7899 55.1274 40.8029 55.107C40.8291 55.0766 40.8508 55.0419 40.8683 55.0057C40.9031 54.9391 40.9395 54.8725 40.9743 54.8075C40.9975 54.7597 41.0136 54.7191 41.0222 54.6844C41.0412 54.6554 41.0542 54.6192 41.0614 54.5758C41.0731 54.515 41.0891 54.4529 41.1094 54.3905C41.0977 54.3427 41.0862 54.3037 41.0702 54.2733V54.2733ZM41.0702 54.2733C41.0556 54.2429 41.0397 54.2095 41.0237 54.1705C40.9946 54.1183 40.9583 54.0692 40.9148 54.0199C40.9031 54.0055 40.8814 53.9852 40.8508 53.9591C40.8101 53.9258 40.7767 53.9042 40.7491 53.894C40.694 53.8722 40.6344 53.852 40.572 53.8318C40.5444 53.8216 40.5124 53.8114 40.4775 53.8028C40.4267 53.797 40.3512 53.797 40.2524 53.8014C40.1914 53.7984 40.1507 53.7984 40.126 53.8042C40.081 53.8231 40.0345 53.8404 39.988 53.8593C39.9256 53.881 39.8646 53.907 39.805 53.9374C39.7498 53.9578 39.6714 53.9998 39.5683 54.0634C39.4593 54.1372 39.362 54.2037 39.2748 54.2647C39.224 54.3009 39.1921 54.3283 39.1789 54.3485C39.1616 54.3775 39.1426 54.4108 39.1267 54.4485C39.1034 54.4948 39.0816 54.5526 39.0642 54.6236C39.0512 54.6772 39.0366 54.7264 39.0221 54.7713C39.1238 54.7814 39.2094 54.8089 39.2777 54.8523L39.4041 54.9131C39.4797 54.9536 39.5596 54.9957 39.6438 55.0347C39.7207 55.0766 39.8268 55.1244 39.9648 55.178C40.0549 55.2084 40.1188 55.2316 40.1551 55.249C40.1987 55.2562 40.2408 55.259 40.2829 55.2576C40.3265 55.2648 40.373 55.2678 40.4223 55.2648C40.4558 55.2665 40.5051 55.259 40.5691 55.246C40.6025 55.246 40.6271 55.246 40.6431 55.2418C40.6736 55.2272 40.7056 55.2026 40.7404 55.1708C40.7695 55.1476 40.7899 55.1274 40.8029 55.107C40.8291 55.0766 40.8508 55.0419 40.8683 55.0057C40.9031 54.9391 40.9395 54.8725 40.9743 54.8075C40.9975 54.7597 41.0136 54.7191 41.0222 54.6844C41.0412 54.6554 41.0542 54.6192 41.0614 54.5758C41.0731 54.515 41.0891 54.4529 41.1094 54.3905C41.0977 54.3427 41.0862 54.3037 41.0702 54.2733V54.2733ZM50.4259 56.1103C50.2022 56.0987 49.98 56.0914 49.7563 56.0827C49.643 55.993 49.5224 55.9134 49.3946 55.8438C49.3452 55.2851 49.0693 54.7943 48.6625 54.4556C48.6742 54.3485 48.6785 54.2399 48.6727 54.1313C48.6698 54.0113 48.6553 53.8896 48.6306 53.7724C48.5188 52.7519 47.6675 52.1873 46.6885 52.1121C46.3356 52.0846 45.984 52.0585 45.6311 52.0367C45.4234 51.8848 45.1823 51.7791 44.9179 51.7342C40.662 51.0235 13.8208 51.908 5.82029 57.1408C5.24069 57.5201 5.44697 58.2684 5.86534 58.6853C5.25958 58.9966 4.84274 59.5554 4.87325 60.3414C4.88773 60.6701 4.99232 60.9768 5.16085 61.2403C5.0199 61.2895 4.87904 61.3359 4.73963 61.385C2.88474 62.0408 2.81211 64.4785 4.17168 65.3717C4.03656 66.6354 4.89796 67.957 6.57998 67.999C7.12027 68.0134 7.82045 67.8745 8.28228 67.5632C8.31861 67.5386 8.40434 67.4692 8.50887 67.3822C8.85896 67.2491 9.21192 67.1203 9.5649 66.9929C21.3652 62.5807 45.9071 60.1967 49.8536 60.0591C51.1449 60.0157 52.946 59.6654 52.8937 58.3828C52.8385 57.0106 51.7201 56.1711 50.4259 56.1103ZM28.5639 52.8141C28.651 52.678 28.7789 52.5912 28.9474 52.555C29.1144 52.5188 29.267 52.5434 29.402 52.6303L29.447 52.6592C29.5822 52.7461 29.6693 52.8721 29.7056 53.0399C29.742 53.2064 29.7172 53.3583 29.6301 53.4945C29.5429 53.6305 29.4151 53.716 29.2481 53.7522C29.0796 53.7898 28.9285 53.7636 28.792 53.6768L28.7484 53.6494C28.6119 53.5625 28.5247 53.4351 28.4884 53.2672C28.4521 53.1008 28.4768 52.9503 28.5639 52.8141ZM16.3249 62.5012C16.3119 62.6299 16.2886 62.7558 16.2581 62.879C16.2261 63.0034 16.1869 63.1323 16.142 63.2669C16.0824 63.4131 16.0214 63.5346 15.9589 63.6317C15.908 63.7099 15.8543 63.788 15.7977 63.8677C15.7265 63.9661 15.6408 64.0732 15.5406 64.186C15.4375 64.2846 15.3605 64.3584 15.314 64.4105C15.2443 64.4756 15.1324 64.5553 14.977 64.6464C14.8375 64.7362 14.7112 64.807 14.5979 64.8606C14.4831 64.9156 14.3931 64.9576 14.3248 64.9895C14.2784 65.0084 14.1926 65.0387 14.0692 65.0821C13.9239 65.1473 13.7787 65.1979 13.6319 65.2341C13.4838 65.2703 13.3618 65.2949 13.2645 65.3079C13.1773 65.3282 13.0916 65.3384 13.0088 65.3398C12.9101 65.3528 12.7939 65.3528 12.6573 65.3412C12.5222 65.3368 12.3756 65.318 12.2186 65.2863C12.0429 65.25 11.8962 65.2066 11.7756 65.1589C11.6652 65.1067 11.5563 65.0517 11.4502 64.9909C11.3573 64.9445 11.2513 64.8852 11.1351 64.81C10.9898 64.7174 10.8809 64.6406 10.8083 64.5813C10.7661 64.5407 10.7197 64.5003 10.6688 64.4611C10.6166 64.4147 10.5439 64.3467 10.4494 64.2599C10.342 64.1498 10.2403 64.0298 10.1445 63.9009C10.0631 63.7937 9.99631 63.6997 9.94399 63.6201C9.88008 63.5173 9.82347 63.4088 9.77263 63.2944C9.73922 63.2177 9.69852 63.1279 9.65054 63.0208C9.59103 62.9079 9.53147 62.7834 9.46756 62.6473C9.40658 62.5199 9.36155 62.4331 9.33536 62.3897C9.29471 62.3143 9.25839 62.2276 9.22646 62.1248C9.19303 62.0495 9.16692 61.9843 9.14655 61.9308C9.1248 61.8685 9.09571 61.7745 9.05941 61.6485C9.01584 61.5254 8.98246 61.4096 8.95769 61.3025C8.93451 61.1955 8.91415 61.0839 8.89821 60.971C8.87495 60.8682 8.8604 60.78 8.85316 60.7062C8.84299 60.6251 8.83569 60.5237 8.8299 60.4051C8.8241 60.285 8.8241 60.1792 8.82848 60.0866C8.8299 59.978 8.84154 59.8419 8.86481 59.6784C8.89531 59.5134 8.9229 59.3701 8.94616 59.2471C8.97956 59.0979 9.02171 58.9648 9.07108 58.8446C9.11608 58.7432 9.15826 58.6507 9.19885 58.5667C9.24683 58.4813 9.30778 58.3742 9.38485 58.2454C9.46035 58.1164 9.54315 57.9891 9.63319 57.8661C9.7232 57.7416 9.79876 57.646 9.8598 57.578C9.91931 57.5114 9.9818 57.4434 10.0471 57.3753C10.1111 57.3073 10.1894 57.2335 10.281 57.1553C10.3871 57.0656 10.4916 56.9932 10.5962 56.9368C10.679 56.8932 10.7661 56.8499 10.8562 56.805C10.9549 56.7587 11.0523 56.7239 11.1482 56.7037C11.2179 56.6805 11.292 56.6559 11.3704 56.6299C11.4503 56.6125 11.5374 56.5893 11.6304 56.5603C11.7495 56.5256 11.8439 56.501 11.9151 56.4851L11.9994 56.4678C12.2303 56.417 12.4307 56.4866 12.5978 56.6747L12.7416 56.7051C12.868 56.7442 13.0001 56.7789 13.141 56.8064C13.3473 56.8354 13.5216 56.8861 13.6625 56.954C13.7453 56.9874 13.8092 57.0106 13.8543 57.025C13.9443 57.0554 14.0489 57.096 14.168 57.1452C14.2885 57.1929 14.396 57.2494 14.4934 57.3117C14.6371 57.3883 14.7592 57.4868 14.8594 57.607C14.9305 57.6996 14.9944 57.8024 15.0526 57.9139C15.0831 57.9747 15.1237 58.0455 15.1746 58.1252C15.2472 58.2264 15.314 58.3322 15.3765 58.4436C15.4389 58.5551 15.4985 58.6637 15.5552 58.7679C15.5857 58.8359 15.6146 58.888 15.6394 58.9242C15.7105 59.0168 15.7789 59.1399 15.8457 59.2919C15.8892 59.4164 15.9313 59.5482 15.9706 59.69C16.004 59.8072 16.033 59.9143 16.0533 60.0099C16.0868 60.1272 16.1158 60.2358 16.1376 60.3356C16.1593 60.4355 16.1783 60.5411 16.1957 60.654C16.2175 60.7568 16.2334 60.8494 16.2436 60.9306C16.2552 61.0203 16.2669 61.1245 16.2799 61.2417C16.2945 61.3604 16.3075 61.4878 16.3206 61.6268C16.338 61.7817 16.3483 61.9381 16.3497 62.0958C16.3497 62.255 16.3424 62.3897 16.3249 62.5011L16.3249 62.5012ZM22.6957 63.1365C22.6057 63.2813 22.4793 63.3727 22.3152 63.4072C22.1525 63.4434 21.9985 63.4146 21.8576 63.3205C21.7152 63.2263 21.6266 63.0989 21.5918 62.9398L21.5032 62.5345C21.496 62.5025 21.4828 62.4635 21.464 62.4172C21.4451 62.3304 21.4306 62.2464 21.4218 62.1638C21.4102 62.1161 21.403 62.0611 21.3971 61.9945C21.3899 61.9627 21.3826 61.9309 21.3754 61.8989C21.3478 61.8136 21.3304 61.7296 21.3202 61.6486C21.2998 61.553 21.2897 61.4517 21.2911 61.3431C21.2941 61.2837 21.2911 61.2129 21.2824 61.1317C21.2723 61.0507 21.2563 60.958 21.2345 60.8552C21.1982 60.6961 21.1778 60.5629 21.1705 60.4557C21.1647 60.3906 21.1575 60.3342 21.1459 60.2864L21.0776 59.9751C21.05 59.8492 21.0268 59.745 21.0093 59.6654C21.0035 59.6336 20.9992 59.6132 20.9963 59.606C20.9643 59.538 20.9309 59.4584 20.8946 59.3657C20.8684 59.2875 20.8394 59.2152 20.8074 59.1472C20.7929 59.1168 20.7755 59.0922 20.7537 59.0719C20.7145 59.0054 20.6709 58.9387 20.623 58.875C20.5866 58.8244 20.546 58.7708 20.4995 58.7143C20.4748 58.6781 20.4472 58.6507 20.4182 58.6319C20.4065 58.6174 20.3877 58.6015 20.3571 58.5826C20.3106 58.5595 20.2642 58.5406 20.2192 58.5248C20.1916 58.5145 20.1611 58.5044 20.1248 58.4958C20.0913 58.4944 20.0318 58.4972 19.9446 58.503C19.859 58.5102 19.795 58.5175 19.7558 58.5262C19.6861 58.5494 19.5945 58.5739 19.4828 58.5986C19.413 58.6217 19.3462 58.6449 19.2838 58.6665C19.2082 58.6999 19.1399 58.7361 19.0819 58.7737C19.0354 58.7911 18.9918 58.8215 18.9511 58.8648C18.8945 58.9098 18.8393 58.9604 18.7841 59.014C18.7565 59.0444 18.7202 59.0892 18.6752 59.1502C18.6577 59.1863 18.6432 59.2152 18.6315 59.234L18.6083 59.3021C18.5691 59.5032 18.4573 59.6436 18.2742 59.7248L18.4558 60.5484C18.4703 60.6121 18.4849 60.7005 18.5008 60.8133L18.5299 60.945C18.5517 61.0072 18.5691 61.0652 18.5822 61.1216C18.6069 61.1983 18.6301 61.3069 18.6519 61.443C18.662 61.566 18.6736 61.6558 18.6867 61.7108C18.6896 61.7687 18.6998 61.8295 18.7129 61.8931C18.7332 61.9801 18.7521 62.0699 18.7725 62.161C18.7928 62.2522 18.8058 62.3348 18.8146 62.4085C18.8262 62.4649 18.8393 62.5243 18.8538 62.5881L18.9032 62.8138C18.9235 62.9022 18.9337 62.9876 18.9351 63.07C18.9395 63.0947 18.9482 63.1337 18.9613 63.1887L18.9874 63.3089C19.0223 63.4681 18.9962 63.6186 18.9119 63.7634C18.8262 63.9067 18.7013 63.9965 18.5372 64.0327C18.3744 64.0674 18.2191 64.0413 18.0738 63.9517C17.93 63.8633 17.84 63.7388 17.8036 63.5796L17.7775 63.4594C17.7557 63.3566 17.7397 63.2641 17.7295 63.1829C17.731 63.1497 17.7266 63.1135 17.7179 63.0729L17.6685 62.8456C17.6468 62.7501 17.6279 62.6633 17.6105 62.5837C17.6046 62.5185 17.593 62.4505 17.5785 62.3781C17.5639 62.3144 17.5494 62.2464 17.5334 62.1754C17.5102 62.0726 17.4913 61.9685 17.4768 61.8627C17.4681 61.7818 17.455 61.6876 17.4405 61.5834C17.4361 61.5254 17.4318 61.485 17.4259 61.4604C17.4085 61.4155 17.394 61.3721 17.3853 61.3315C17.3504 61.2475 17.3229 61.1419 17.3025 61.013C17.2909 60.9234 17.2807 60.8552 17.2705 60.8075L17.0178 59.661C17.0003 59.5815 16.9786 59.5032 16.9539 59.4251C16.9234 59.3237 16.8972 59.2209 16.874 59.1182C16.8566 59.0386 16.8421 58.9706 16.829 58.9156C16.8013 58.8287 16.781 58.7505 16.765 58.6781L16.6997 58.38C16.6648 58.2207 16.6924 58.0717 16.7825 57.9312C16.8725 57.7908 17.0003 57.7026 17.1631 57.6664C17.3272 57.6302 17.4797 57.6576 17.6206 57.7474C17.7615 57.8386 17.8501 57.9631 17.885 58.1223L17.8981 58.1816C17.9039 58.1715 17.914 58.1615 17.9285 58.1499C18.0041 58.0745 18.081 58.0035 18.158 57.937C18.2568 57.8574 18.3628 57.7836 18.4732 57.7184C18.5778 57.662 18.6882 57.6084 18.803 57.5592C18.9322 57.5057 19.0615 57.4607 19.1879 57.4245C19.275 57.4057 19.3491 57.3855 19.4116 57.3623C19.5147 57.3319 19.6556 57.3102 19.8357 57.2958C20.0172 57.2813 20.1683 57.2813 20.2889 57.2972C20.4007 57.3146 20.5213 57.3464 20.6491 57.3927C20.758 57.4362 20.8597 57.4811 20.9542 57.5273C21.0587 57.5867 21.1546 57.6576 21.2389 57.7402C21.3129 57.8068 21.3841 57.8836 21.4523 57.9689C21.5105 58.0384 21.5628 58.1063 21.6107 58.1715C21.6484 58.2295 21.6906 58.2873 21.7356 58.3438C21.8082 58.4452 21.8692 58.5522 21.9201 58.6666C21.9549 58.7505 21.9912 58.8389 22.0275 58.9301C22.0523 59.001 22.077 59.0574 22.1031 59.1024C22.1496 59.1993 22.183 59.3137 22.2033 59.4425C22.2178 59.5063 22.2368 59.5974 22.2643 59.7176L22.3311 60.0273C22.3544 60.1301 22.3689 60.2358 22.3762 60.3428C22.382 60.408 22.3965 60.4934 22.4197 60.5961C22.4531 60.7467 22.4764 60.8929 22.4894 61.0304C22.4996 61.1535 22.5069 61.2605 22.5098 61.3519C22.5113 61.3939 22.5098 61.4271 22.5069 61.4517C22.5141 61.4851 22.5244 61.5155 22.5403 61.5459C22.5679 61.6312 22.5883 61.7268 22.6028 61.8309C22.61 61.9048 22.6172 61.9699 22.6217 62.0279C22.6231 62.0365 22.626 62.0481 22.6289 62.0641C22.6522 62.1335 22.6725 62.2044 22.6885 62.2754L22.777 62.6821C22.812 62.8398 22.7843 62.9918 22.6957 63.1366V63.1365ZM29.0128 61.1897C28.9184 61.3301 28.7905 61.4155 28.6293 61.4415L28.545 61.4604C28.4564 61.4792 28.3679 61.4908 28.2763 61.4936C28.2269 61.4966 28.1819 61.5024 28.1413 61.511C28.1078 61.5096 28.0628 61.5154 28.0076 61.527L27.7796 61.5776C27.7084 61.592 27.6488 61.6052 27.6009 61.6166C27.5704 61.6312 27.5312 61.6442 27.4832 61.6544C27.399 61.689 27.2814 61.7238 27.1288 61.7572L26.1832 61.9627C26.1121 61.9785 26.0148 61.9959 25.8928 62.0133C25.8215 62.0293 25.7736 62.0395 25.7489 62.0452C25.6719 62.0713 25.5935 62.0958 25.5151 62.1218C25.4512 62.1349 25.364 62.158 25.2551 62.1914C25.1505 62.213 25.0764 62.2334 25.03 62.2522C24.9515 62.2782 24.8774 62.3014 24.8077 62.326C24.783 62.3318 24.7525 62.3419 24.7147 62.3593L24.5782 62.4259C24.4358 62.4983 24.2833 62.5099 24.1206 62.4577C23.9594 62.4041 23.8403 62.3042 23.7648 62.1538C23.6602 61.9423 23.6791 61.7383 23.8185 61.5414L23.3856 59.5712C23.3726 59.5091 23.3552 59.4121 23.3348 59.2833C23.3203 59.1776 23.3072 59.098 23.2942 59.0416C23.2767 58.9619 23.2593 58.8823 23.2419 58.8027C23.2375 58.7463 23.2317 58.6797 23.2244 58.6073C23.2099 58.5435 23.1925 58.4596 23.1693 58.3568C23.1446 58.2454 23.1227 58.1657 23.1054 58.1209C23.0879 58.0413 23.0661 57.9283 23.0429 57.7836C23.0167 57.6634 22.9993 57.5808 22.9877 57.5331C22.9775 57.4854 22.9514 57.3869 22.9107 57.2364C22.8715 57.096 22.8424 57.0062 22.8264 56.9686C22.8032 56.8976 22.7814 56.8195 22.7625 56.7311C22.7393 56.6704 22.7117 56.5807 22.6783 56.462C22.6289 56.3142 22.5955 56.2057 22.5795 56.1333C22.5722 56.0943 22.5607 56.0465 22.549 55.9901C22.5228 55.9134 22.4924 55.8106 22.4561 55.6846C22.4212 55.5601 22.3878 55.4457 22.3572 55.3445C22.3137 55.2286 22.2861 55.1388 22.2731 55.0752L22.2396 54.9826C22.196 54.8247 22.2178 54.6728 22.3021 54.5252C22.3863 54.3774 22.5083 54.2819 22.6652 54.2385C22.8236 54.1965 22.976 54.2169 23.1256 54.3008C23.2738 54.3862 23.3683 54.5064 23.4118 54.6641L23.4423 54.7451C23.454 54.8001 23.4757 54.8798 23.5062 54.9811C23.5483 55.097 23.589 55.2214 23.6268 55.3546C23.6616 55.4805 23.6878 55.5747 23.7008 55.6383C23.7285 55.7252 23.7503 55.8034 23.7662 55.8742C23.7749 55.9148 23.7996 55.9886 23.8388 56.0957C23.8795 56.2376 23.9115 56.3476 23.9377 56.4258C23.9478 56.4736 23.9565 56.5126 23.9638 56.5446C23.9942 56.6126 24.0335 56.7341 24.08 56.9064C24.1264 57.08 24.1584 57.2031 24.1744 57.274C24.1875 57.3377 24.2092 57.4377 24.2398 57.5722C24.2558 57.6852 24.2688 57.7618 24.2775 57.8024C24.2993 57.8632 24.324 57.9587 24.3516 58.0861C24.3821 58.2207 24.4024 58.3336 24.414 58.422C24.4329 58.5102 24.446 58.5855 24.4518 58.6521C24.4605 58.6911 24.4692 58.7347 24.4809 58.7824C24.4983 58.862 24.5157 58.9634 24.5346 59.0834C24.5492 59.1891 24.5608 59.2659 24.5723 59.3137L24.9471 61.0203C25.0648 60.9856 25.152 60.9624 25.2071 60.9508C25.2479 60.9422 25.2914 60.9276 25.3364 60.9088C25.4207 60.874 25.5397 60.8452 25.6937 60.8191C25.791 60.806 25.8681 60.793 25.9232 60.7815L26.8703 60.5745C26.9647 60.5541 27.033 60.5353 27.0707 60.518C27.1492 60.4934 27.2261 60.4673 27.3046 60.4428C27.3685 60.4282 27.4411 60.4124 27.521 60.395L27.7476 60.3458C27.8435 60.324 27.9277 60.311 28.0018 60.3024C28.0758 60.295 28.1456 60.2878 28.211 60.282C28.2444 60.2834 28.2778 60.2806 28.3097 60.2734L28.3926 60.2546C28.5538 60.2285 28.7063 60.2604 28.8472 60.35C28.9881 60.4398 29.0738 60.5671 29.1057 60.7308C29.1377 60.8944 29.1071 61.0478 29.0128 61.1897ZM31.1974 61.1115C31.1073 61.2533 30.9809 61.3417 30.8168 61.3764C30.6527 61.4126 30.5001 61.385 30.3593 61.2953C30.2183 61.2055 30.1312 61.0811 30.0949 60.9218L29.9598 60.3008C29.9438 60.2284 29.9322 60.1561 29.9235 60.0837C29.9162 60.0519 29.909 60.0157 29.9003 59.9767L29.5516 58.3886C29.5342 58.309 29.5211 58.2295 29.5109 58.1469C29.5066 58.0905 29.4994 58.0369 29.4892 57.9891L29.4499 57.8112C29.4354 57.7474 29.4224 57.688 29.4107 57.6316C29.3976 57.5766 29.3889 57.5158 29.3831 57.4507C29.3701 57.3942 29.3628 57.3377 29.3585 57.2798C29.3512 57.2479 29.341 57.2046 29.3294 57.1496L29.2089 56.6009C29.2001 56.5604 29.1899 56.517 29.1798 56.4692C29.1536 56.391 29.1318 56.3084 29.113 56.2217L28.9837 55.6369C28.9474 55.4689 28.9736 55.3155 29.065 55.175C29.1551 55.0346 29.2815 54.9465 29.4456 54.9102C29.6097 54.8741 29.7622 54.9015 29.9031 54.9913C30.0441 55.081 30.1326 55.2098 30.169 55.3777L30.2982 55.9626C30.3084 56.0103 30.3243 56.061 30.3447 56.1145C30.3622 56.1941 30.3781 56.2694 30.3941 56.3418L30.5147 56.8905C30.5335 56.9772 30.5481 57.0626 30.5583 57.1438C30.5684 57.1916 30.5742 57.2393 30.5771 57.29C30.5858 57.3291 30.5946 57.3695 30.6032 57.4087C30.6119 57.4492 30.6222 57.4969 30.6352 57.552L30.6745 57.7314C30.6919 57.8112 30.7064 57.895 30.718 57.9833C30.7194 58.0339 30.7267 58.0817 30.7369 58.1295L31.0855 59.7176C31.1015 59.7884 31.1145 59.8651 31.1233 59.9463C31.132 59.9867 31.1393 60.0187 31.1451 60.0417L31.2816 60.6627C31.3164 60.822 31.2889 60.971 31.1974 61.1115ZM37.173 59.9767C37.083 60.1214 36.9566 60.2111 36.7925 60.2472C36.6298 60.2835 36.4758 60.2531 36.3349 60.159C36.1926 60.0649 36.104 59.9389 36.0691 59.7798L35.9805 59.3745C35.9732 59.3425 35.9602 59.3035 35.9413 59.2571C35.9224 59.1703 35.9079 59.0864 35.8991 59.0038C35.8876 58.956 35.8803 58.8996 35.8745 58.8345C35.8672 58.8027 35.86 58.7708 35.8527 58.7389C35.8251 58.6535 35.8076 58.5695 35.7975 58.4886C35.7771 58.393 35.767 58.2902 35.7684 58.1816C35.7713 58.1237 35.7684 58.0529 35.7597 57.9717C35.7495 57.8907 35.7336 57.798 35.7118 57.6938C35.6769 57.536 35.6552 57.4029 35.6479 57.2958C35.6421 57.2305 35.6348 57.1727 35.6232 57.1264L35.5549 56.8151C35.5273 56.6877 35.5055 56.585 35.4867 56.5054C35.4808 56.4736 35.4765 56.4532 35.4736 56.446C35.4431 56.378 35.4082 56.2969 35.3719 56.2057C35.3458 56.1275 35.3167 56.0551 35.2847 55.9872C35.2703 55.9567 35.2528 55.9307 35.2311 55.9104C35.1918 55.8438 35.1482 55.7787 35.1002 55.7136C35.0639 55.6644 35.0233 55.6109 34.9769 55.5529C34.9521 55.5167 34.926 55.4893 34.8955 55.4703C34.8853 55.4573 34.865 55.4399 34.8345 55.4211C34.788 55.3995 34.7415 55.3791 34.6965 55.3647C34.6689 55.3531 34.6384 55.3445 34.6021 55.3358C34.5687 55.3344 34.5091 55.3372 34.4219 55.343C34.3363 55.3487 34.2724 55.3575 34.2331 55.3661C34.1634 55.3893 34.0719 55.4139 33.9601 55.4371C33.8903 55.4617 33.8236 55.4849 33.7625 55.5065C33.6855 55.5399 33.6187 55.5747 33.5591 55.6122C33.5127 55.631 33.469 55.6614 33.4284 55.7034C33.3718 55.7498 33.3166 55.799 33.2614 55.8526C33.2338 55.8844 33.1975 55.9293 33.1525 55.9886C33.135 56.0263 33.1205 56.0551 33.1089 56.0741L33.0856 56.1421C33.0464 56.3418 32.9346 56.4822 32.7515 56.5647L32.9331 57.3883C32.9476 57.4521 32.9622 57.5404 32.9782 57.6532L33.0072 57.7836C33.029 57.8458 33.0464 57.9052 33.0595 57.9602C33.0842 58.0383 33.1074 58.1455 33.1292 58.283C33.1393 58.406 33.151 58.4958 33.1641 58.5507C33.1684 58.6087 33.1771 58.6681 33.1917 58.7317C33.2106 58.82 33.2294 58.9098 33.2498 59.001C33.2702 59.0922 33.2832 59.1747 33.2919 59.2485C33.3035 59.3035 33.3166 59.3643 33.3311 59.4265L33.3805 59.6538C33.4008 59.7422 33.411 59.8261 33.4125 59.9101C33.4168 59.9331 33.4255 59.9737 33.4386 60.0287L33.4647 60.1489C33.4996 60.3082 33.4735 60.4586 33.3892 60.6019C33.3035 60.7467 33.1786 60.8364 33.0145 60.8712C32.8517 60.9074 32.6963 60.8814 32.5511 60.7916C32.4074 60.7019 32.3173 60.5788 32.2809 60.4196L32.2548 60.2994C32.233 60.1967 32.217 60.104 32.2068 60.0229C32.2082 59.9897 32.2039 59.9519 32.1952 59.9129L32.1459 59.6856C32.1241 59.5901 32.1052 59.5032 32.0877 59.4237C32.082 59.3585 32.0703 59.2891 32.0558 59.2182C32.0413 59.1544 32.0268 59.0864 32.0108 59.0154C31.9875 58.9112 31.9687 58.807 31.9541 58.7027C31.9454 58.6203 31.9324 58.5276 31.9178 58.422C31.9134 58.3654 31.9091 58.325 31.9033 58.3004C31.8858 58.254 31.8713 58.212 31.8627 58.1715C31.8277 58.0875 31.8001 57.9819 31.7798 57.8516C31.7682 57.7634 31.758 57.6938 31.7479 57.646L31.4951 56.501C31.4777 56.4214 31.4574 56.3433 31.4312 56.2651C31.4007 56.1637 31.3731 56.061 31.3514 55.9568C31.3339 55.8786 31.3194 55.8106 31.3063 55.754C31.2787 55.6687 31.2584 55.5905 31.2424 55.5181L31.177 55.22C31.1421 55.0608 31.1698 54.9117 31.2598 54.7697C31.3498 54.6294 31.4762 54.541 31.6404 54.5064C31.8045 54.4702 31.957 54.4976 32.0979 54.5874C32.2388 54.6771 32.3274 54.8017 32.3623 54.9609L32.3753 55.0217C32.3812 55.0115 32.3913 55.0014 32.4059 54.9898C32.4814 54.9145 32.5583 54.8437 32.6354 54.777C32.7342 54.6959 32.8402 54.6236 32.9505 54.557C33.0552 54.502 33.1655 54.4484 33.2803 54.3978C33.4096 54.3442 33.5388 54.2993 33.6652 54.2646C33.7523 54.2443 33.8279 54.2241 33.8889 54.2023C33.992 54.1719 34.1329 54.1487 34.3145 54.1343C34.4946 54.1199 34.6456 54.1213 34.7662 54.1357C34.8781 54.1531 34.9986 54.1849 35.1264 54.2327C35.2354 54.2761 35.3371 54.3196 35.4314 54.3659C35.536 54.4266 35.6319 54.4976 35.7162 54.5787C35.7902 54.6467 35.8614 54.7219 35.9297 54.8075C35.9878 54.8783 36.0401 54.9465 36.088 55.0115C36.1257 55.0694 36.1679 55.1274 36.2129 55.1838C36.2855 55.2851 36.3465 55.3922 36.3974 55.5065C36.4323 55.5905 36.4686 55.6789 36.5049 55.77C36.5296 55.8396 36.5543 55.8974 36.5805 55.9408C36.6269 56.0393 36.6603 56.1537 36.6807 56.2824C36.6952 56.3462 36.7155 56.4374 36.7416 56.556L36.8099 56.8673C36.8317 56.97 36.8462 57.0758 36.8535 57.1828C36.8593 57.2479 36.8739 57.3319 36.897 57.4361C36.9305 57.5867 36.9537 57.7314 36.9668 57.8704C36.977 57.9935 36.9842 58.1007 36.9871 58.1918C36.9885 58.2323 36.9871 58.2656 36.9842 58.2916C36.9914 58.3234 37.0017 58.3554 37.0176 58.3844C37.0452 58.4712 37.0656 58.5667 37.0801 58.6709C37.0873 58.7447 37.0946 58.8099 37.099 58.8678C37.1004 58.875 37.1033 58.888 37.1062 58.9025C37.1295 58.9734 37.1498 59.0444 37.1658 59.1154L37.2543 59.5206C37.2893 59.6798 37.2617 59.8319 37.173 59.9767ZM43.1357 58.0745L43.0543 58.2178C43.0021 58.3206 42.9468 58.4162 42.8916 58.503C42.8205 58.6015 42.7217 58.7085 42.5924 58.8244C42.4616 58.9402 42.3237 59.04 42.1741 59.1226C42.0084 59.208 41.8589 59.2702 41.7253 59.3079C41.6134 59.3325 41.5248 59.3469 41.4594 59.3541C41.3955 59.3673 41.3273 59.3787 41.2532 59.386C41.1704 59.3875 41.0687 59.3846 40.9496 59.3773C40.8567 59.3729 40.768 59.3672 40.6823 59.3599C40.5821 59.3571 40.4833 59.3499 40.3889 59.3367C40.2844 59.3179 40.1784 59.2919 40.0708 59.2571C40.0244 59.2413 39.9677 59.2281 39.8994 59.2195C39.7687 59.1978 39.6205 59.1544 39.4564 59.0908C39.2734 59.0212 39.1121 58.933 38.9698 58.8215C38.8681 58.7361 38.7781 58.6507 38.7011 58.5682C38.6256 58.4929 38.5428 58.3974 38.4513 58.2844C38.3554 58.1556 38.2813 58.0455 38.229 57.9573C38.1753 57.869 38.1274 57.7836 38.0838 57.701C38.0416 57.62 38.0082 57.5476 37.9865 57.4854C37.956 57.4245 37.9211 57.3407 37.8804 57.2335C37.8412 57.125 37.8049 57.0206 37.7744 56.9194C37.7483 56.7992 37.725 56.6747 37.7047 56.5459C37.6829 56.4432 37.6654 56.3462 37.6538 56.2579C37.6335 56.1291 37.6277 56.0219 37.6335 55.9365C37.6378 55.8771 37.6436 55.7932 37.6524 55.6817C37.6582 55.5559 37.6713 55.4573 37.6887 55.3865C37.6945 55.3358 37.6989 55.2851 37.7047 55.233C37.7105 55.1824 37.7192 55.1258 37.7308 55.065C37.741 54.9957 37.7584 54.9045 37.7831 54.7915C37.8064 54.7032 37.8194 54.6322 37.8252 54.5816C37.8427 54.5106 37.8645 54.418 37.8906 54.3051C37.9211 54.1807 37.9632 54.0677 38.0155 53.965C38.0649 53.8462 38.1245 53.7362 38.1956 53.6378C38.2799 53.5277 38.3932 53.4149 38.5356 53.3005C38.6503 53.218 38.7781 53.1312 38.9175 53.0429C39.0657 52.9517 39.1877 52.8837 39.2865 52.8373C39.3707 52.8025 39.4506 52.7678 39.5276 52.7345C39.6205 52.6969 39.7135 52.665 39.8065 52.6362C39.9271 52.61 40.0737 52.5942 40.2481 52.5898C40.3991 52.5898 40.5225 52.597 40.617 52.6086C40.7448 52.623 40.8639 52.6506 40.9743 52.694C41.0542 52.7171 41.1269 52.7431 41.1922 52.7707C41.3026 52.8141 41.426 52.8821 41.564 52.9777C41.7035 53.0804 41.8167 53.1934 41.9024 53.3164C41.9606 53.3946 42.0158 53.4741 42.0681 53.5553C42.1218 53.6523 42.1654 53.7377 42.2002 53.8144C42.2366 53.9056 42.2671 54.0083 42.2917 54.1199C42.3281 54.2863 42.331 54.4528 42.3004 54.6178C42.2787 54.7061 42.2584 54.7901 42.2424 54.8683C42.2148 54.9666 42.1842 55.0564 42.1523 55.1374C42.1261 55.2098 42.0913 55.2836 42.0492 55.3603C42.0216 55.4241 41.9911 55.4907 41.9548 55.5559C41.9068 55.6412 41.8472 55.7338 41.7775 55.8322C41.7006 55.9408 41.6047 56.0363 41.4885 56.1203C41.3752 56.2115 41.2692 56.281 41.1704 56.3274C41.0585 56.3852 40.9162 56.4244 40.7448 56.4446C40.6068 56.4678 40.4921 56.475 40.3991 56.4706C40.3308 56.4692 40.264 56.4678 40.1972 56.4648C40.1289 56.4634 40.0563 56.4532 39.9778 56.4374C39.8675 56.4286 39.7106 56.3838 39.5087 56.3027C39.3431 56.2303 39.208 56.1725 39.1063 56.1275C39.0207 56.0797 38.935 56.0321 38.8492 55.9843C38.8463 56.0089 38.8492 56.0422 38.8579 56.0813C38.8696 56.1711 38.8812 56.2651 38.8943 56.362C38.9117 56.4416 38.9277 56.517 38.9437 56.5879C38.9698 56.6661 38.9945 56.7443 39.0207 56.8225C39.0453 56.8991 39.0657 56.9541 39.0816 56.983C39.0976 57.0222 39.1267 57.0742 39.1659 57.1408C39.1979 57.2089 39.2327 57.2711 39.2705 57.3305C39.2995 57.3899 39.3489 57.4593 39.4158 57.536C39.4869 57.6287 39.5436 57.6996 39.5886 57.7488C39.6307 57.7894 39.6815 57.8328 39.7426 57.8777C39.7745 57.9124 39.8224 57.9399 39.885 57.9587C39.9778 57.9977 40.0534 58.0181 40.113 58.0209C40.235 58.0455 40.3453 58.0745 40.4456 58.1107C40.4906 58.1267 40.5342 58.1339 40.5763 58.1324C40.6301 58.1469 40.6896 58.1541 40.7565 58.1556C40.8421 58.1628 40.9307 58.1687 41.0237 58.173C41.0919 58.1745 41.1384 58.1773 41.1631 58.1803C41.2038 58.1715 41.2445 58.1673 41.2866 58.1657C41.3186 58.1585 41.3694 58.1469 41.442 58.1311C41.474 58.1253 41.5233 58.102 41.5902 58.0615C41.657 58.0225 41.718 57.9805 41.7746 57.9342C41.8298 57.8806 41.8676 57.843 41.888 57.8212C41.9199 57.7734 41.9533 57.7156 41.9882 57.6504L42.0579 57.5101C42.1436 57.3653 42.2671 57.2683 42.4269 57.2162C42.5866 57.1654 42.7406 57.1786 42.8873 57.2595C43.0355 57.3391 43.1328 57.4607 43.1807 57.6214C43.2286 57.7806 43.2141 57.9327 43.1357 58.0745ZM39.4041 54.9131C39.4797 54.9536 39.5596 54.9956 39.6438 55.0346C39.7207 55.0766 39.8268 55.1244 39.9648 55.178C40.0549 55.2084 40.1188 55.2316 40.1551 55.2489C40.1987 55.2562 40.2408 55.259 40.2829 55.2576C40.3265 55.2648 40.373 55.2678 40.4223 55.2648C40.4558 55.2665 40.5051 55.259 40.5691 55.246C40.6025 55.246 40.6271 55.246 40.6431 55.2418C40.6736 55.2272 40.7056 55.2026 40.7404 55.1708C40.7695 55.1476 40.7899 55.1274 40.8029 55.107C40.8291 55.0766 40.8508 55.0419 40.8683 55.0056C40.9031 54.9391 40.9395 54.8725 40.9743 54.8075C40.9975 54.7597 41.0136 54.7191 41.0222 54.6844C41.0412 54.6554 41.0542 54.6192 41.0614 54.5758C41.0731 54.515 41.0891 54.4528 41.1094 54.3904C41.0977 54.3427 41.0862 54.3037 41.0702 54.2733C41.0556 54.2429 41.0397 54.2095 41.0237 54.1705C40.9946 54.1183 40.9583 54.0692 40.9148 54.0199C40.9031 54.0055 40.8814 53.9852 40.8508 53.9591C40.8101 53.9258 40.7767 53.9042 40.7491 53.894C40.694 53.8722 40.6344 53.852 40.572 53.8318C40.5444 53.8216 40.5124 53.8114 40.4775 53.8028C40.4267 53.797 40.3512 53.797 40.2524 53.8014C40.1914 53.7984 40.1507 53.7984 40.126 53.8042C40.081 53.8231 40.0345 53.8404 39.988 53.8593C39.9256 53.881 39.8646 53.907 39.805 53.9374C39.7498 53.9578 39.6714 53.9998 39.5683 54.0634C39.4593 54.1372 39.362 54.2037 39.2748 54.2647C39.224 54.3009 39.1921 54.3283 39.1789 54.3485C39.1616 54.3775 39.1426 54.4108 39.1267 54.4485C39.1034 54.4948 39.0816 54.5526 39.0642 54.6236C39.0512 54.6772 39.0366 54.7264 39.0221 54.7713C39.1238 54.7814 39.2094 54.8089 39.2777 54.8523L39.4041 54.9131Z" fill="#E10028"/>
<path fill-rule="evenodd" clip-rule="evenodd" d="M41.0701 54.2727C41.0556 54.2423 41.0396 54.2091 41.0237 54.1699C40.9946 54.1179 40.9583 54.0686 40.9147 54.0194C40.9031 54.0049 40.8813 53.9847 40.8508 53.9586C40.8101 53.9254 40.7767 53.9036 40.7491 53.8934C40.6939 53.8718 40.6343 53.8514 40.5719 53.8312C40.5443 53.821 40.5123 53.811 40.4775 53.8022C40.4267 53.7965 40.3512 53.7965 40.2523 53.8008C40.1914 53.798 40.1506 53.798 40.126 53.8038C40.0809 53.8226 40.0345 53.84 39.988 53.8588C39.9255 53.8804 39.8646 53.9065 39.805 53.9369C39.7498 53.9572 39.6713 53.9991 39.5682 54.0627C39.4593 54.1367 39.362 54.2033 39.2748 54.264C39.2239 54.3002 39.192 54.3276 39.1789 54.348C39.1615 54.377 39.1426 54.4102 39.1266 54.4478C39.1034 54.4942 39.0816 54.5521 39.0641 54.623C39.0511 54.6765 39.0365 54.7257 39.022 54.7707C39.1237 54.7809 39.2094 54.8083 39.2777 54.8517L39.4041 54.9125C39.4796 54.9531 39.5595 54.995 39.6438 55.0342C39.7207 55.076 39.8267 55.1238 39.9647 55.1774C40.0548 55.2078 40.1187 55.231 40.155 55.2484C40.1986 55.2556 40.2407 55.2585 40.2828 55.257C40.3265 55.2643 40.3729 55.2671 40.4223 55.2643C40.4557 55.2658 40.5051 55.2585 40.569 55.2455C40.6024 55.2455 40.6271 55.2455 40.6431 55.2412C40.6736 55.2266 40.7055 55.202 40.7404 55.1702C40.7694 55.147 40.7898 55.1268 40.8029 55.1066C40.829 55.076 40.8508 55.0414 40.8683 55.0052C40.9031 54.9386 40.9394 54.8721 40.9743 54.8069C40.9975 54.7591 41.0135 54.7185 41.0222 54.6838C41.0411 54.6549 41.0542 54.6187 41.0614 54.5752C41.073 54.5144 41.089 54.4522 41.1093 54.39C41.0977 54.3422 41.0861 54.303 41.0701 54.2726V54.2727ZM41.0701 54.2727C41.0556 54.2423 41.0396 54.2091 41.0237 54.1699C40.9946 54.1179 40.9583 54.0686 40.9147 54.0194C40.9031 54.0049 40.8813 53.9847 40.8508 53.9586C40.8101 53.9254 40.7767 53.9036 40.7491 53.8934C40.6939 53.8718 40.6343 53.8514 40.5719 53.8312C40.5443 53.821 40.5123 53.811 40.4775 53.8022C40.4267 53.7965 40.3512 53.7965 40.2523 53.8008C40.1914 53.798 40.1506 53.798 40.126 53.8038C40.0809 53.8226 40.0345 53.84 39.988 53.8588C39.9255 53.8804 39.8646 53.9065 39.805 53.9369C39.7498 53.9572 39.6713 53.9991 39.5682 54.0627C39.4593 54.1367 39.362 54.2033 39.2748 54.264C39.2239 54.3002 39.192 54.3276 39.1789 54.348C39.1615 54.377 39.1426 54.4102 39.1266 54.4478C39.1034 54.4942 39.0816 54.5521 39.0641 54.623C39.0511 54.6765 39.0365 54.7257 39.022 54.7707C39.1237 54.7809 39.2094 54.8083 39.2777 54.8517L39.4041 54.9125C39.4796 54.9531 39.5595 54.995 39.6438 55.0342C39.7207 55.076 39.8267 55.1238 39.9647 55.1774C40.0548 55.2078 40.1187 55.231 40.155 55.2484C40.1986 55.2556 40.2407 55.2585 40.2828 55.257C40.3265 55.2643 40.3729 55.2671 40.4223 55.2643C40.4557 55.2658 40.5051 55.2585 40.569 55.2455C40.6024 55.2455 40.6271 55.2455 40.6431 55.2412C40.6736 55.2266 40.7055 55.202 40.7404 55.1702C40.7694 55.147 40.7898 55.1268 40.8029 55.1066C40.829 55.076 40.8508 55.0414 40.8683 55.0052C40.9031 54.9386 40.9394 54.8721 40.9743 54.8069C40.9975 54.7591 41.0135 54.7185 41.0222 54.6838C41.0411 54.6549 41.0542 54.6187 41.0614 54.5752C41.073 54.5144 41.089 54.4522 41.1093 54.39C41.0977 54.3422 41.0861 54.303 41.0701 54.2726V54.2727ZM41.0701 54.2727C41.0556 54.2423 41.0396 54.2091 41.0237 54.1699C40.9946 54.1179 40.9583 54.0686 40.9147 54.0194C40.9031 54.0049 40.8813 53.9847 40.8508 53.9586C40.8101 53.9254 40.7767 53.9036 40.7491 53.8934C40.6939 53.8718 40.6343 53.8514 40.5719 53.8312C40.5443 53.821 40.5123 53.811 40.4775 53.8022C40.4267 53.7965 40.3512 53.7965 40.2523 53.8008C40.1914 53.798 40.1506 53.798 40.126 53.8038C40.0809 53.8226 40.0345 53.84 39.988 53.8588C39.9255 53.8804 39.8646 53.9065 39.805 53.9369C39.7498 53.9572 39.6713 53.9991 39.5682 54.0627C39.4593 54.1367 39.362 54.2033 39.2748 54.264C39.2239 54.3002 39.192 54.3276 39.1789 54.348C39.1615 54.377 39.1426 54.4102 39.1266 54.4478C39.1034 54.4942 39.0816 54.5521 39.0641 54.623C39.0511 54.6765 39.0365 54.7257 39.022 54.7707C39.1237 54.7809 39.2094 54.8083 39.2777 54.8517L39.4041 54.9125C39.4796 54.9531 39.5595 54.995 39.6438 55.0342C39.7207 55.076 39.8267 55.1238 39.9647 55.1774C40.0548 55.2078 40.1187 55.231 40.155 55.2484C40.1986 55.2556 40.2407 55.2585 40.2828 55.257C40.3265 55.2643 40.3729 55.2671 40.4223 55.2643C40.4557 55.2658 40.5051 55.2585 40.569 55.2455C40.6024 55.2455 40.6271 55.2455 40.6431 55.2412C40.6736 55.2266 40.7055 55.202 40.7404 55.1702C40.7694 55.147 40.7898 55.1268 40.8029 55.1066C40.829 55.076 40.8508 55.0414 40.8683 55.0052C40.9031 54.9386 40.9394 54.8721 40.9743 54.8069C40.9975 54.7591 41.0135 54.7185 41.0222 54.6838C41.0411 54.6549 41.0542 54.6187 41.0614 54.5752C41.073 54.5144 41.089 54.4522 41.1093 54.39C41.0977 54.3422 41.0861 54.303 41.0701 54.2726V54.2727ZM41.0701 54.2727C41.0556 54.2423 41.0396 54.2091 41.0237 54.1699C40.9946 54.1179 40.9583 54.0686 40.9147 54.0194C40.9031 54.0049 40.8813 53.9847 40.8508 53.9586C40.8101 53.9254 40.7767 53.9036 40.7491 53.8934C40.6939 53.8718 40.6343 53.8514 40.5719 53.8312C40.5443 53.821 40.5123 53.811 40.4775 53.8022C40.4267 53.7965 40.3512 53.7965 40.2523 53.8008C40.1914 53.798 40.1506 53.798 40.126 53.8038C40.0809 53.8226 40.0345 53.84 39.988 53.8588C39.9255 53.8804 39.8646 53.9065 39.805 53.9369C39.7498 53.9572 39.6713 53.9991 39.5682 54.0627C39.4593 54.1367 39.362 54.2033 39.2748 54.264C39.2239 54.3002 39.192 54.3276 39.1789 54.348C39.1615 54.377 39.1426 54.4102 39.1266 54.4478C39.1034 54.4942 39.0816 54.5521 39.0641 54.623C39.0511 54.6765 39.0365 54.7257 39.022 54.7707C39.1237 54.7809 39.2094 54.8083 39.2777 54.8517L39.4041 54.9125C39.4796 54.9531 39.5595 54.995 39.6438 55.0342C39.7207 55.076 39.8267 55.1238 39.9647 55.1774C40.0548 55.2078 40.1187 55.231 40.155 55.2484C40.1986 55.2556 40.2407 55.2585 40.2828 55.257C40.3265 55.2643 40.3729 55.2671 40.4223 55.2643C40.4557 55.2658 40.5051 55.2585 40.569 55.2455C40.6024 55.2455 40.6271 55.2455 40.6431 55.2412C40.6736 55.2266 40.7055 55.202 40.7404 55.1702C40.7694 55.147 40.7898 55.1268 40.8029 55.1066C40.829 55.076 40.8508 55.0414 40.8683 55.0052C40.9031 54.9386 40.9394 54.8721 40.9743 54.8069C40.9975 54.7591 41.0135 54.7185 41.0222 54.6838C41.0411 54.6549 41.0542 54.6187 41.0614 54.5752C41.073 54.5144 41.089 54.4522 41.1093 54.39C41.0977 54.3422 41.0861 54.303 41.0701 54.2726V54.2727ZM41.0701 54.2727C41.0556 54.2423 41.0396 54.2091 41.0237 54.1699C40.9946 54.1179 40.9583 54.0686 40.9147 54.0194C40.9031 54.0049 40.8813 53.9847 40.8508 53.9586C40.8101 53.9254 40.7767 53.9036 40.7491 53.8934C40.6939 53.8718 40.6343 53.8514 40.5719 53.8312C40.5443 53.821 40.5123 53.811 40.4775 53.8022C40.4267 53.7965 40.3512 53.7965 40.2523 53.8008C40.1914 53.798 40.1506 53.798 40.126 53.8038C40.0809 53.8226 40.0345 53.84 39.988 53.8588C39.9255 53.8804 39.8646 53.9065 39.805 53.9369C39.7498 53.9572 39.6713 53.9991 39.5682 54.0627C39.4593 54.1367 39.362 54.2033 39.2748 54.264C39.2239 54.3002 39.192 54.3276 39.1789 54.348C39.1615 54.377 39.1426 54.4102 39.1266 54.4478C39.1034 54.4942 39.0816 54.5521 39.0641 54.623C39.0511 54.6765 39.0365 54.7257 39.022 54.7707C39.1237 54.7809 39.2094 54.8083 39.2777 54.8517L39.4041 54.9125C39.4796 54.9531 39.5595 54.995 39.6438 55.0342C39.7207 55.076 39.8267 55.1238 39.9647 55.1774C40.0548 55.2078 40.1187 55.231 40.155 55.2484C40.1986 55.2556 40.2407 55.2585 40.2828 55.257C40.3265 55.2643 40.3729 55.2671 40.4223 55.2643C40.4557 55.2658 40.5051 55.2585 40.569 55.2455C40.6024 55.2455 40.6271 55.2455 40.6431 55.2412C40.6736 55.2266 40.7055 55.202 40.7404 55.1702C40.7694 55.147 40.7898 55.1268 40.8029 55.1066C40.829 55.076 40.8508 55.0414 40.8683 55.0052C40.9031 54.9386 40.9394 54.8721 40.9743 54.8069C40.9975 54.7591 41.0135 54.7185 41.0222 54.6838C41.0411 54.6549 41.0542 54.6187 41.0614 54.5752C41.073 54.5144 41.089 54.4522 41.1093 54.39C41.0977 54.3422 41.0861 54.303 41.0701 54.2726V54.2727Z" fill="#E10028"/>
<path fill-rule="evenodd" clip-rule="evenodd" d="M23.0762 4.07314C23.3101 3.55632 23.5527 3.04245 23.7865 2.5257C23.3638 3.70833 22.7886 4.85768 22.1902 5.97951C22.2004 5.95633 22.212 5.9332 22.2222 5.91005C22.5069 5.29775 22.7974 4.68834 23.0762 4.07314Z" fill="#FEE3C7"/>
<path fill-rule="evenodd" clip-rule="evenodd" d="M9.33245 26.9937C9.29908 26.8648 9.30487 26.7287 9.36154 26.5999C9.47626 26.3423 9.58954 26.0831 9.70291 25.8255C9.68975 25.8646 9.67819 25.9037 9.66658 25.9427C9.50819 26.4392 9.39344 26.7997 9.33245 26.9937Z" fill="#FEE3C7"/>
<path fill-rule="evenodd" clip-rule="evenodd" d="M19.4406 4.29461C19.3985 4.36985 19.3563 4.44515 19.3142 4.52183C19.7296 3.40866 20.3629 1.6485 21.4668 0.833466C21.3724 0.986921 21.2591 1.16934 21.1299 1.3821C20.9178 1.72955 20.6636 2.15367 20.3789 2.64291C20.0957 3.13221 19.7761 3.68517 19.4406 4.29461Z" fill="#FEE3C7"/>
<path fill-rule="evenodd" clip-rule="evenodd" d="M24.2717 0.840728C24.2615 0.889926 24.2499 0.9406 24.2383 0.989799C24.0247 1.3488 23.8142 1.70779 23.605 2.06826C23.2622 2.65159 22.9296 3.23932 22.5955 3.82701C22.2599 4.41326 21.9375 5.00675 21.6078 5.59739C21.2795 6.1865 20.9526 6.77861 20.6317 7.37355L19.6643 9.15402L18.7115 10.9417C18.3991 11.541 18.084 12.1374 17.776 12.7396L16.8551 14.5432L15.9356 16.3498C15.6321 16.9535 15.3314 17.5571 15.0351 18.1636L14.1563 19.9904L13.937 20.4464L13.7293 20.9096L13.3167 21.836L12.499 23.6918L11.6856 25.5504L10.8663 27.4047C10.6702 27.8521 10.4684 28.295 10.2665 28.7394C9.73188 28.9117 9.02599 28.4745 9.33535 27.8564C9.42542 27.6769 9.48354 27.5061 9.51984 27.3324C9.46175 27.2731 9.41378 27.2036 9.38037 27.1283C9.43124 26.9879 9.57943 26.5913 9.80312 25.992C9.8699 25.8023 9.95707 25.5953 10.0529 25.371C10.1459 25.1451 10.2476 24.9019 10.355 24.6414C10.5642 24.1173 10.8286 23.5383 11.1104 22.9043C11.3863 22.2674 11.7088 21.587 12.0443 20.8661C12.3769 20.1439 12.7401 19.3868 13.1134 18.6037C13.4824 17.8176 13.8832 17.0156 14.2812 16.1964C14.6807 15.377 15.099 14.5505 15.5115 13.7211C15.9327 12.8959 16.354 12.0709 16.7679 11.2587C17.1921 10.4511 17.6002 9.65342 17.9895 8.87757C18.3773 8.10021 18.742 7.34453 19.0804 6.62365C19.2503 6.26327 19.4159 5.91297 19.5757 5.57421C19.7311 5.2341 19.8836 4.9055 20.0289 4.58987C20.1755 4.27579 20.3106 3.97036 20.44 3.68086C20.5692 3.39133 20.6971 3.11915 20.8089 2.86005C21.0369 2.34188 21.233 1.89023 21.3913 1.51674C21.5497 1.14616 21.6717 0.85234 21.7544 0.649629C22.0101 0.510667 22.2904 0.420957 22.5955 0.399217C22.7669 0.387667 22.9411 0.425258 23.0879 0.503444C22.976 0.678611 22.838 0.901537 22.6783 1.16497C22.4546 1.53124 22.1859 1.97849 21.8823 2.4938C21.5787 3.01059 21.2389 3.59398 20.88 4.2367C20.7 4.55658 20.5126 4.89101 20.3194 5.2384C20.1291 5.58579 19.9316 5.94478 19.7296 6.31533C19.3229 7.05362 18.9148 7.844 18.4965 8.6618C18.0825 9.48261 17.6627 10.3352 17.2473 11.2066C16.8304 12.078 16.4063 12.9625 15.9836 13.847C15.5581 14.73 15.1252 15.6101 14.717 16.4859C14.3044 17.3587 13.8992 18.2186 13.5071 19.0495C13.3109 19.4649 13.1177 19.8732 12.9289 20.2741C12.7459 20.6765 12.5673 21.0717 12.393 21.4553C12.0472 22.224 11.7204 22.9506 11.4183 23.6223C11.2687 23.9581 11.1234 24.2795 10.9869 24.5849C10.8562 24.8947 10.7327 25.1871 10.6179 25.4636C10.3885 26.0151 10.188 26.4971 10.0239 26.8938C9.69558 27.6856 9.50819 28.1387 9.50819 28.1387C9.4995 28.1589 9.50819 28.1821 9.52856 28.1922C9.5489 28.2009 9.57358 28.1922 9.58375 28.172V28.1706C9.58375 28.1706 9.7929 27.7262 10.1575 26.9503C10.3391 26.5624 10.5584 26.0904 10.8111 25.5505C10.9376 25.2799 11.0726 24.9932 11.2135 24.6893C11.3631 24.3896 11.5215 24.0741 11.6841 23.7455C12.0124 23.0882 12.3682 22.3761 12.743 21.6219C12.9303 21.2455 13.1236 20.8576 13.3197 20.4624C13.5216 20.0687 13.7263 19.6662 13.9355 19.258C14.3539 18.4402 14.7867 17.5947 15.2254 16.7364C15.6597 15.8751 16.1201 15.0095 16.5719 14.1409C17.0294 13.2739 17.4855 12.4067 17.9358 11.5527C18.3919 10.7029 18.8407 9.86635 19.2605 9.0499C19.6774 8.23057 20.0724 7.43588 20.4384 6.67733C20.623 6.29806 20.8016 5.93037 20.9759 5.57429C21.1444 5.21529 21.3086 4.86938 21.4654 4.5364C21.6252 4.20489 21.7719 3.88501 21.9114 3.5796C22.0508 3.27558 22.1873 2.98896 22.3094 2.71537C22.5563 2.1711 22.7698 1.69485 22.9397 1.30112C23.0603 1.02756 23.1605 0.794446 23.2404 0.606314C23.2549 0.619307 23.2695 0.632414 23.2825 0.645379C23.3101 0.600511 23.3377 0.554203 23.3668 0.509335C23.6225 0.111246 24.3748 0.348659 24.2717 0.840814V0.840728Z" fill="#FEE3C7"/>
<path fill-rule="evenodd" clip-rule="evenodd" d="M54.936 16.6407C54.9084 16.263 54.5772 16.1023 54.262 16.1413C54.2228 16.2326 54.1807 16.331 54.1356 16.4337C53.9671 16.8275 53.755 17.3009 53.511 17.8437C53.2641 18.3865 52.9852 18.9973 52.6701 19.6589C52.5132 19.9889 52.3505 20.3334 52.1805 20.691C52.0077 21.0457 51.829 21.4119 51.6446 21.7897C51.2799 22.5438 50.8791 23.3328 50.4593 24.1464C50.0352 24.957 49.5848 25.7878 49.1229 26.6318C48.6654 27.4757 48.1991 28.334 47.7344 29.1925C46.8091 30.9108 45.8838 32.6304 45.0166 34.2415C44.5823 35.0478 44.1626 35.8266 43.7646 36.5648C43.3637 37.3017 42.9846 37.9979 42.6345 38.6407C41.4958 40.7295 40.6664 42.2508 40.3947 42.7503C40.6765 42.95 41.0716 42.9602 41.2967 42.5765C41.8589 41.6196 42.2409 40.5673 42.7028 39.5613C43.2679 38.3338 43.9171 37.1454 44.5853 35.9713C45.0079 35.2273 45.4466 34.492 45.8896 33.7608C45.8896 33.7594 45.891 33.758 45.8925 33.7566C46.5476 32.4915 47.2317 31.1713 47.9173 29.8511C48.3386 29.0318 48.7584 28.2125 49.1724 27.4062C49.5834 26.5985 49.993 25.8066 50.3997 25.0453C50.8108 24.2867 51.2131 23.5557 51.6083 22.871C51.8058 22.5266 51.9975 22.1935 52.1819 21.8694C52.3708 21.5495 52.5538 21.2396 52.7282 20.9414C53.0796 20.345 53.4094 19.8051 53.7028 19.3245C53.9962 18.8469 54.2562 18.4314 54.4741 18.0912C54.6135 17.8726 54.7341 17.6859 54.8357 17.5325C54.8357 17.5311 54.8357 17.5311 54.8357 17.5311C54.9171 17.2431 54.9578 16.9463 54.936 16.6409V16.6407ZM53.8393 15.0875C53.758 15.0846 53.6781 15.0818 53.5968 15.0774C53.4965 15.063 53.4094 15.076 53.3382 15.1107C53.2249 15.3365 53.1101 15.5623 52.9954 15.7867C52.6845 16.3874 52.3882 16.9955 52.0919 17.602L50.2923 21.2281C49.9915 21.8317 49.6967 22.4397 49.3902 23.0404C49.0837 23.6411 48.7846 24.2476 48.4853 24.8527L48.035 25.7604L47.5775 26.6636C47.2738 27.2658 46.9631 27.8651 46.6653 28.4716C46.366 29.0767 46.0611 29.6788 45.7545 30.281C45.4466 30.8804 45.1372 31.4811 44.8191 32.076C44.501 32.6724 44.1989 33.276 43.8779 33.8694L42.9207 35.6558C42.5953 36.2493 42.2801 36.8457 41.9663 37.4435L41.0251 39.237L40.5588 40.1374L40.1188 41.048C39.8646 41.5748 39.6075 42.1016 39.3576 42.6315C39.5363 42.9152 39.9401 43.0672 40.2408 42.8516H40.2422C40.3714 42.5867 41.1922 40.9133 42.3744 38.5074C42.6969 37.8502 43.047 37.1396 43.4188 36.3868C43.7922 35.6355 44.1843 34.8437 44.5924 34.023C45.4074 32.3858 46.2774 30.6386 47.1489 28.89C47.5803 28.0156 48.0117 27.1398 48.4373 26.2786C48.8585 25.4143 49.2797 24.5675 49.6966 23.754C50.1179 22.9419 50.5318 22.1588 50.9371 21.4249C51.1303 21.0732 51.3191 20.7287 51.5021 20.3972C51.5036 20.3943 51.5051 20.3914 51.5051 20.3899C51.7737 19.8037 52.0556 19.2232 52.3664 18.6586C52.8341 17.8118 53.3497 16.7841 54.0179 16.0631C54.0179 16.0631 54.0179 16.0617 54.0193 16.0617C54.1094 15.9127 54.1923 15.7809 54.2633 15.6665V15.6651C54.3142 15.3945 54.1791 15.1035 53.8393 15.0876L53.8393 15.0875Z" fill="#FEE3C7"/>
<path fill-rule="evenodd" clip-rule="evenodd" d="M38.3264 28.2212C38.046 28.1039 37.7264 27.9549 37.3938 27.7797C37.2283 27.6913 37.0568 27.5987 36.8883 27.4988C36.717 27.4004 36.5485 27.2948 36.3785 27.1891C36.3581 27.1746 36.3364 27.1616 36.316 27.1471C36.1694 27.4264 36.0226 27.7015 35.8788 27.9707C35.6144 28.4629 35.3559 28.9377 35.1076 29.385C35.0887 29.4197 35.0697 29.4545 35.0509 29.4878C35.0726 29.5052 35.0959 29.5211 35.1177 29.537C35.2891 29.6673 35.4605 29.7961 35.6247 29.9278C35.7902 30.0596 35.95 30.1942 36.1025 30.3259C36.4075 30.5893 36.682 30.8485 36.9102 31.0815C37.1294 31.3059 37.3052 31.5043 37.4272 31.6533C37.4722 31.552 37.5187 31.4507 37.5652 31.3479C37.8078 30.8167 38.0591 30.2535 38.3336 29.6788C38.5253 29.2765 38.7171 28.861 38.916 28.4441C38.7548 28.3905 38.5544 28.3167 38.3264 28.2212ZM40.8043 24.3866C40.6402 24.362 40.4093 24.3185 40.1405 24.2491C39.8718 24.181 39.5639 24.0869 39.2414 23.9712C39.0816 23.9118 38.916 23.8496 38.7505 23.7801C38.5848 23.7121 38.4193 23.6368 38.2537 23.5615C38.2203 23.5456 38.1869 23.5296 38.1534 23.5137C37.9356 23.9625 37.7119 24.4126 37.4882 24.8643C37.2239 25.3855 36.9609 25.908 36.6952 26.4189C36.7372 26.445 36.7794 26.4711 36.8215 26.4971C36.9885 26.6057 37.157 26.7142 37.3183 26.8272C37.481 26.9372 37.6364 27.053 37.786 27.1659C38.0866 27.3917 38.3569 27.616 38.582 27.8202C38.7548 27.9766 38.9001 28.1198 39.0148 28.2386C39.0686 28.1271 39.1224 28.0156 39.1775 27.9042C39.4709 27.3035 39.7686 26.6925 40.0679 26.0817C40.3526 25.52 40.6373 24.9569 40.9177 24.4026C40.8842 24.3981 40.8464 24.3924 40.8043 24.3866ZM42.0143 21.0384C41.7252 20.9979 41.3926 20.9356 41.0425 20.8516C40.8683 20.8097 40.6881 20.7648 40.5066 20.7113C40.325 20.662 40.1434 20.6027 39.9604 20.5448C39.8428 20.5042 39.7251 20.4638 39.6089 20.4218C39.4201 20.8372 39.2226 21.27 39.0134 21.7159C38.8507 22.0633 38.6822 22.4179 38.5094 22.7769C38.5413 22.7914 38.5718 22.8044 38.6023 22.8189C38.7664 22.8971 38.9306 22.9738 39.089 23.0578C39.2487 23.1388 39.4026 23.2257 39.5508 23.3111C39.8471 23.4819 40.1173 23.6571 40.3425 23.8178C40.5676 23.9799 40.7491 24.1275 40.8741 24.2375C40.9075 24.2679 40.9365 24.2925 40.9612 24.3157C40.9685 24.3012 40.9757 24.2867 40.983 24.2723C41.2822 23.6744 41.596 23.0954 41.8894 22.5294C42.145 22.0343 42.405 21.5595 42.6519 21.1036C42.4834 21.0949 42.267 21.0746 42.0143 21.0384ZM44.4401 17.7119C44.2599 17.7525 44.0013 17.8017 43.6934 17.8422C43.3855 17.8828 43.0252 17.9146 42.6403 17.9319C42.4486 17.9392 42.2496 17.9464 42.0477 17.945C41.8472 17.9479 41.6424 17.9406 41.4376 17.9363C41.2328 17.9276 41.028 17.919 40.8276 17.9031C40.7869 17.9001 40.7462 17.8958 40.7056 17.8929C40.5749 18.207 40.431 18.5558 40.2654 18.9308C40.1623 19.1682 40.0549 19.4201 39.9401 19.6777C40.0331 19.7067 40.126 19.7371 40.219 19.766C40.4005 19.8283 40.5807 19.8877 40.7579 19.9556C40.9336 20.0208 41.1064 20.0903 41.272 20.1612C41.6032 20.3016 41.9068 20.4493 42.1639 20.5867C42.405 20.7171 42.6011 20.8372 42.7434 20.9327C42.7478 20.9255 42.7522 20.9168 42.7566 20.9096C43.0325 20.3943 43.3042 19.9122 43.554 19.4664C43.8009 19.0205 44.0348 18.6152 44.2425 18.2563C44.363 18.0449 44.4763 17.8538 44.5795 17.6786C44.5402 17.6888 44.4938 17.6989 44.4401 17.7119ZM52.9024 13.4995C52.5756 13.3838 52.2357 13.3027 51.8929 13.2433C51.2814 13.1376 50.6597 13.0841 50.0352 13.0653C49.8071 13.2129 46.5374 14.0931 45.6064 14.1828C44.7102 14.2697 43.9041 14.4969 43.1458 15.0007C42.4195 15.4841 41.7935 16.0068 41.2299 16.5871C41.1922 16.687 41.1486 16.8029 41.0963 16.9317C41.0731 16.9881 41.0499 17.0475 41.0251 17.1098C41.1718 17.1098 41.3185 17.1126 41.4653 17.117C41.6701 17.1257 41.8748 17.1344 42.0767 17.1503C42.2772 17.1633 42.4747 17.1836 42.6665 17.2038C43.0485 17.2473 43.4044 17.3052 43.7094 17.3659C44.0144 17.4282 44.2686 17.4948 44.4459 17.5484C44.5199 17.5701 44.578 17.5889 44.6245 17.6033C44.6812 17.5079 44.7378 17.4137 44.7886 17.3283C44.9397 17.0721 45.0646 16.8738 45.1474 16.7363C45.22 16.6191 45.2636 16.5496 45.2752 16.5322C45.2679 16.5481 45.2389 16.6263 45.1895 16.7565C45.13 16.9057 45.0472 17.1257 44.9339 17.4007C44.822 17.6773 44.6869 18.013 44.5243 18.3952C44.363 18.7773 44.1814 19.2087 43.9752 19.6748C43.7718 20.1424 43.5496 20.649 43.3056 21.1803C43.0644 21.7115 42.8132 22.2746 42.5372 22.8493C42.2641 23.4239 41.9911 24.0247 41.6948 24.624C41.4013 25.2247 41.1035 25.8356 40.8043 26.4465C40.4978 27.053 40.1914 27.6596 39.8893 28.256C39.5915 28.8552 39.2762 29.4342 38.9843 30.0002C38.6909 30.5662 38.3946 31.1061 38.1171 31.62C37.8412 32.1353 37.571 32.6174 37.3197 33.0618C37.0728 33.5091 36.839 33.9144 36.6298 34.2733C36.4249 34.6337 36.2376 34.9436 36.0851 35.1998C35.8004 35.676 35.6217 35.9583 35.5971 35.9959C35.6115 35.9597 35.7292 35.6456 35.9384 35.1274C36.0502 34.8509 36.1853 34.5152 36.348 34.1329C36.5078 33.7508 36.6894 33.3193 36.897 32.8533C37.0409 32.5218 37.1934 32.1715 37.3575 31.8068C37.3531 31.8039 37.3473 31.8025 37.343 31.801C37.1643 31.7272 36.9145 31.6142 36.6254 31.4622C36.3364 31.3117 36.0066 31.125 35.6668 30.9092C35.4968 30.8007 35.3211 30.6878 35.1482 30.5676C34.9782 30.4533 34.8112 30.3302 34.6442 30.2087C34.6108 30.268 34.5759 30.3273 34.5425 30.3853V30.3867C34.2869 31.2581 34.037 32.1353 33.8017 32.959C33.8482 33.0039 33.8933 33.0501 33.9382 33.0965C34.0863 33.2412 34.2259 33.3903 34.3595 33.5351C34.6267 33.826 34.865 34.1112 35.0611 34.363C35.2557 34.6163 35.4082 34.8379 35.5099 34.997C35.613 35.1564 35.6653 35.2547 35.6653 35.2547C35.6653 35.2547 35.5651 35.2084 35.398 35.1172C35.231 35.026 35 34.8885 34.7343 34.7105C34.4684 34.5324 34.1692 34.3138 33.8598 34.0663C33.7596 33.9867 33.6579 33.9042 33.5562 33.8174C33.363 34.4876 33.183 35.0998 33.0202 35.6152C33.1684 35.7556 33.3151 35.896 33.4618 36.0393L34.1605 36.7255L34.8475 37.4247L35.523 38.1325C35.7495 38.367 35.966 38.6131 36.1882 38.852C36.4119 39.0893 36.6182 39.3427 36.8375 39.5844C37.0583 39.8247 37.2646 40.0794 37.4751 40.3284C37.6887 40.5745 37.8862 40.8366 38.0881 41.0927C38.2944 41.346 38.4818 41.6168 38.6779 41.8787C38.7781 42.009 38.8666 42.148 38.9568 42.2841L39.0308 42.3941C39.2574 41.8831 39.4797 41.3706 39.7019 40.8568C39.9706 40.2358 40.2349 39.6119 40.5138 38.9967L41.3316 37.138C41.6003 36.517 41.8734 35.8975 42.1552 35.2823L42.9991 33.4367C43.2809 32.8214 43.5714 32.2091 43.8662 31.6012C44.1583 30.9903 44.4604 30.3853 44.7624 29.7816C45.0675 29.1779 45.374 28.5743 45.6877 27.975C45.9957 27.3729 46.3167 26.7779 46.6319 26.1787L47.1054 25.2812L47.5876 24.388C47.9086 23.7931 48.2297 23.1981 48.5594 22.6076C48.8862 22.014 49.2232 21.4278 49.5543 20.8372C49.8899 20.2495 50.2123 19.656 50.5639 19.0754L51.6067 17.3283C51.9598 16.7493 52.3011 16.1645 52.6787 15.6028C53.0375 15.0498 53.4021 14.5013 53.7696 13.954C53.5096 13.7543 53.2133 13.6052 52.9024 13.4995V13.4995ZM42.2816 32.9677L39.4738 30.766C39.6104 30.3418 43.018 23.6209 43.018 23.6209L46.674 24.5661L42.2816 32.9677ZM44.4401 17.7119C44.2599 17.7525 44.0013 17.8017 43.6934 17.8422C43.3855 17.8828 43.0252 17.9146 42.6403 17.9319C42.4486 17.9392 42.2496 17.9464 42.0477 17.945C41.8472 17.9479 41.6424 17.9406 41.4376 17.9363C41.2328 17.9276 41.028 17.919 40.8276 17.9031C40.7869 17.9001 40.7462 17.8958 40.7056 17.8929C40.5749 18.207 40.431 18.5558 40.2654 18.9308C40.1623 19.1682 40.0549 19.4201 39.9401 19.6777C40.0331 19.7067 40.126 19.7371 40.219 19.766C40.4005 19.8283 40.5807 19.8877 40.7579 19.9556C40.9336 20.0208 41.1064 20.0903 41.272 20.1612C41.6032 20.3016 41.9068 20.4493 42.1639 20.5867C42.405 20.7171 42.6011 20.8372 42.7434 20.9327C42.7478 20.9255 42.7522 20.9168 42.7566 20.9096C43.0325 20.3943 43.3042 19.9122 43.554 19.4664C43.8009 19.0205 44.0348 18.6152 44.2425 18.2563C44.363 18.0449 44.4763 17.8538 44.5795 17.6786C44.5402 17.6888 44.4938 17.6989 44.4401 17.7119ZM42.0143 21.0384C41.7252 20.9979 41.3926 20.9356 41.0425 20.8516C40.8683 20.8097 40.6881 20.7648 40.5066 20.7113C40.325 20.662 40.1434 20.6027 39.9604 20.5448C39.8428 20.5042 39.7251 20.4638 39.6089 20.4218C39.4201 20.8372 39.2226 21.27 39.0134 21.7159C38.8507 22.0633 38.6822 22.4179 38.5094 22.7769C38.5413 22.7914 38.5718 22.8044 38.6023 22.8189C38.7664 22.8971 38.9306 22.9738 39.089 23.0578C39.2487 23.1388 39.4026 23.2257 39.5508 23.3111C39.8471 23.4819 40.1173 23.6571 40.3425 23.8178C40.5676 23.9799 40.7491 24.1275 40.8741 24.2375C40.9075 24.2679 40.9365 24.2925 40.9612 24.3157C40.9685 24.3012 40.9757 24.2867 40.983 24.2723C41.2822 23.6744 41.596 23.0954 41.8894 22.5294C42.145 22.0343 42.405 21.5595 42.6519 21.1036C42.4834 21.0949 42.267 21.0746 42.0143 21.0384ZM40.8043 24.3866C40.6402 24.362 40.4093 24.3185 40.1405 24.2491C39.8718 24.181 39.5639 24.0869 39.2414 23.9712C39.0816 23.9118 38.916 23.8496 38.7505 23.7801C38.5848 23.7121 38.4193 23.6368 38.2537 23.5615C38.2203 23.5456 38.1869 23.5296 38.1534 23.5137C37.9356 23.9625 37.7119 24.4126 37.4882 24.8643C37.2239 25.3855 36.9609 25.908 36.6952 26.4189C36.7372 26.445 36.7794 26.4711 36.8215 26.4971C36.9885 26.6057 37.157 26.7142 37.3183 26.8272C37.481 26.9372 37.6364 27.053 37.786 27.1659C38.0866 27.3917 38.3569 27.616 38.582 27.8202C38.7548 27.9766 38.9001 28.1198 39.0148 28.2386C39.0686 28.1271 39.1224 28.0156 39.1775 27.9042C39.4709 27.3035 39.7686 26.6925 40.0679 26.0817C40.3526 25.52 40.6373 24.9569 40.9177 24.4026C40.8842 24.3981 40.8464 24.3924 40.8043 24.3866ZM38.3264 28.2212C38.046 28.1039 37.7264 27.9549 37.3938 27.7797C37.2283 27.6913 37.0568 27.5987 36.8883 27.4988C36.717 27.4004 36.5485 27.2948 36.3785 27.1891C36.3581 27.1746 36.3364 27.1616 36.316 27.1471C36.1694 27.4264 36.0226 27.7015 35.8788 27.9707C35.6144 28.4629 35.3559 28.9377 35.1076 29.385C35.0887 29.4197 35.0697 29.4545 35.0509 29.4878C35.0726 29.5052 35.0959 29.5211 35.1177 29.537C35.2891 29.6673 35.4605 29.7961 35.6247 29.9278C35.7902 30.0596 35.95 30.1942 36.1025 30.3259C36.4075 30.5893 36.682 30.8485 36.9102 31.0815C37.1294 31.3059 37.3052 31.5043 37.4272 31.6533C37.4722 31.552 37.5187 31.4507 37.5652 31.3479C37.8078 30.8167 38.0591 30.2535 38.3336 29.6788C38.5253 29.2765 38.7171 28.861 38.916 28.4441C38.7548 28.3905 38.5544 28.3167 38.3264 28.2212ZM31.3687 4.9286C31.2438 4.77511 31.116 4.62604 30.9838 4.47989C30.8545 4.33226 30.7238 4.18309 30.5873 4.04124C30.3215 3.75032 30.0455 3.46945 29.7637 3.19441C29.6184 3.06125 29.479 2.92227 29.3308 2.79205C29.1812 2.66467 29.036 2.53145 28.8835 2.40695C28.7295 2.28678 28.5799 2.15799 28.423 2.03929C28.2647 1.92487 28.1078 1.80473 27.9451 1.69476C27.781 1.58912 27.6197 1.47331 27.4498 1.37627L27.1956 1.23012C27.1099 1.17945 27.0242 1.13164 26.9356 1.08966C26.7598 1.00428 26.587 0.910217 26.4025 0.842138L26.1294 0.730663C26.038 0.698873 25.9436 0.67136 25.8491 0.640957C25.4889 0.517904 25.1112 0.455658 24.7292 0.416565C24.4634 1.02311 24.1961 1.62819 23.9202 2.23037C23.6456 2.84703 23.3551 3.45793 23.0763 4.07314C22.7974 4.68835 22.5069 5.29776 22.2222 5.91005C21.9375 6.5224 21.6499 7.13322 21.3565 7.74118L20.4821 9.568L19.5931 11.3861L18.7158 13.21L17.8239 15.0268L16.9306 16.842C16.63 17.447 16.3263 18.0492 16.0184 18.6499L15.0844 20.4449L14.1549 22.2428L13.2224 24.0378L12.284 25.8313L11.3529 27.6291C11.0886 28.1358 10.8329 28.6453 10.5758 29.1563L11.3675 29.2374L12.4815 29.3416L14.7141 29.5399L16.9466 29.7556L18.0622 29.8713C18.3425 29.9047 18.6214 29.935 18.9017 29.9654C19.2575 29.317 19.9257 29.0709 20.5445 28.1792C20.4109 28.1256 20.2787 28.0721 20.145 28.0199L19.3215 27.6971L18.4921 27.3859C18.2175 27.2803 17.9372 27.1891 17.6597 27.0877C17.3823 26.9878 17.1049 26.888 16.8231 26.7997C16.5428 26.71 16.2639 26.6115 15.9807 26.5304L15.1309 26.2858L14.271 26.0802C13.982 26.0238 13.6915 25.9803 13.401 25.9297L13.3589 25.9225L14.0241 24.4271C14.2434 23.9408 14.4526 23.4515 14.6792 22.9695L16.0693 20.0903C16.3046 19.6111 16.5486 19.1378 16.7869 18.663L17.5087 17.2357C17.7469 16.7594 17.9895 16.2861 18.2379 15.8142L18.9758 14.397C19.4638 13.4504 19.962 12.508 20.4617 11.5671C20.9614 10.6262 21.4581 9.68382 21.9651 8.74582L23.4786 5.93176C23.9856 4.99517 24.4853 4.05573 24.982 3.11623L25.0546 2.98018L25.1941 3.01783L25.6617 3.14521L26.1135 3.31316C26.2602 3.37827 26.404 3.44632 26.5493 3.51429C26.693 3.58381 26.8296 3.66489 26.969 3.74016C27.1114 3.81401 27.2392 3.90661 27.3757 3.98918C27.5123 4.07167 27.6401 4.16432 27.7694 4.25547C27.8987 4.34665 28.0279 4.43791 28.15 4.53631C28.2734 4.63476 28.4012 4.72743 28.5203 4.83019C29.492 5.63503 30.3621 6.54266 31.1756 7.49221C31.2424 7.57184 31.3106 7.65002 31.3774 7.7311C31.5532 7.16361 31.7914 6.22997 31.9759 5.68134C31.7769 5.42652 31.5779 5.1747 31.3687 4.9286Z" fill="#FFF2DF"/>
<path fill-rule="evenodd" clip-rule="evenodd" d="M28.07 28.628L26.9879 30.7254L26.8674 30.9599L26.6321 30.8485C25.5688 30.3463 24.4911 29.8613 23.4089 29.3922L22.597 29.0376L21.782 28.6916C21.5119 28.5744 21.2373 28.4644 20.9658 28.3529C20.8249 28.295 20.6854 28.2371 20.5445 28.1792C19.9257 29.0709 19.2576 29.317 18.9017 29.9655C18.9932 29.9756 19.0862 29.9843 19.1777 29.9944L20.2932 30.1291C20.6651 30.1725 21.0355 30.2275 21.4074 30.2739C21.7791 30.3202 22.1496 30.3795 22.5199 30.4345L23.0778 30.5185L23.6326 30.614C24.003 30.6777 24.3734 30.737 24.7424 30.8138C25.1113 30.8891 25.4817 30.9513 25.8491 31.0367C26.2167 31.1206 26.5856 31.1974 26.9531 31.2885L27.6401 31.471C28.1485 29.9886 28.6017 28.3804 29.0388 26.7446L28.07 28.628ZM35.7249 11.9174C35.414 11.2038 35.0625 10.5017 34.6834 9.81269C34.5905 9.64041 34.4902 9.47107 34.3929 9.30021C34.297 9.12801 34.1968 8.95862 34.0951 8.78923C33.9964 8.61987 33.8947 8.45197 33.7886 8.28547C33.6841 8.1176 33.5809 7.94966 33.472 7.78609C33.2585 7.45458 33.0348 7.13032 32.8082 6.80611C32.5787 6.48621 32.3463 6.16772 32.1081 5.85217C32.0645 5.7957 32.0194 5.73781 31.9745 5.68137C31.7914 6.23 31.5532 7.16511 31.3774 7.73112C31.4689 7.84109 31.5605 7.95113 31.6505 8.06263C31.7275 8.1552 31.8031 8.24929 31.8786 8.34486C32.0194 8.5215 32.1589 8.69802 32.2969 8.87758C32.3666 8.96732 32.4349 9.05702 32.5017 9.14681C32.5699 9.23654 32.6383 9.32631 32.7051 9.41749C32.7908 9.53185 32.875 9.64765 32.9593 9.76349C33.1278 9.99502 33.2933 10.2267 33.4575 10.4612C33.8148 10.9736 34.1634 11.4904 34.5004 12.0158C34.6355 12.2243 34.7677 12.4341 34.8984 12.6455C35.1874 12.4313 35.4895 12.2547 35.8106 12.1186C35.783 12.052 35.7539 11.984 35.7249 11.9174ZM34.1198 29.8048C33.9543 29.6731 33.7959 29.5399 33.6434 29.4067C33.3384 29.1433 33.0638 28.8842 32.8358 28.6511C32.7647 28.5787 32.6993 28.5093 32.6383 28.4427C32.5802 28.5483 32.522 28.6511 32.4654 28.7511C32.2765 29.097 32.0965 29.4096 31.9352 29.6861C31.7755 29.9641 31.6302 30.2029 31.5111 30.4012C31.3716 30.6329 31.2642 30.8022 31.2003 30.905C31.3382 30.986 31.4995 31.0859 31.6796 31.2061C31.9454 31.3841 32.2446 31.6027 32.5526 31.8502C32.708 31.9733 32.8649 32.1035 33.0217 32.2396C33.0711 32.2816 33.1191 32.325 33.167 32.3684C33.2599 32.1368 33.3674 31.8647 33.4967 31.5563C33.6362 31.2191 33.793 30.8413 33.9731 30.4316C34.0501 30.2535 34.13 30.0668 34.2128 29.8772C34.1823 29.8526 34.1504 29.8294 34.1198 29.8048ZM34.3958 30.6415C34.175 31.0309 33.9659 31.3841 33.7785 31.6967C33.5983 32.0022 33.4342 32.2671 33.2991 32.4872C33.363 32.5436 33.4255 32.6015 33.488 32.6594C33.5925 32.7593 33.6986 32.8577 33.8017 32.959C34.037 32.1354 34.2869 31.2582 34.5425 30.3868C34.4931 30.4736 34.4438 30.559 34.3958 30.6415ZM35.414 26.5203C35.1148 26.2945 34.8432 26.0687 34.618 25.8646C34.4524 25.7155 34.3116 25.578 34.1997 25.4621C34.0443 25.7734 33.8889 26.0817 33.7349 26.3813C33.5112 26.8185 33.289 27.2398 33.0769 27.6364C32.9897 27.8029 32.9012 27.9635 32.8154 28.1198C32.9113 28.1662 33.0115 28.2154 33.1191 28.2719C33.4081 28.4224 33.7364 28.6092 34.0777 28.8248C34.2302 28.9218 34.3871 29.0246 34.544 29.1302C34.5469 29.123 34.5498 29.1172 34.5527 29.1085C34.7633 28.6425 34.9884 28.1517 35.2252 27.6451C35.369 27.3382 35.5171 27.024 35.6697 26.7085C35.5826 26.6463 35.4969 26.5826 35.414 26.5203ZM37.3052 23.0679C37.0089 22.8971 36.7387 22.7219 36.5136 22.5613C36.2884 22.3991 36.1069 22.2515 35.982 22.1415C35.921 22.0908 35.876 22.0459 35.844 22.0155C35.8149 22.0792 35.7874 22.1415 35.7583 22.2051C35.5447 22.6742 35.3211 23.1475 35.0989 23.6223C34.8708 24.0943 34.6456 24.5661 34.4161 25.0279C34.3798 25.1032 34.3421 25.1756 34.3058 25.2508C34.4626 25.3029 34.6559 25.3739 34.8737 25.4665C35.154 25.5837 35.4736 25.7329 35.8062 25.908C35.8715 25.9427 35.9369 25.9789 36.0038 26.0151C36.2463 25.5113 36.4991 25.0047 36.7518 24.4981C36.9813 24.0436 37.2108 23.5919 37.4417 23.1447C37.3953 23.1186 37.3502 23.094 37.3052 23.0679ZM49.8042 13.0595C49.1027 13.0436 48.3996 13.0595 47.6966 13.0972C46.9936 13.1362 46.2905 13.187 45.589 13.2564C44.8874 13.3244 44.1858 13.407 43.4857 13.4952C42.7856 13.5835 42.0855 13.6834 41.3883 13.792C40.6911 13.9005 39.9924 14.0106 39.2981 14.1321L38.2551 14.3218C38.0198 14.3652 37.7831 14.4116 37.5493 14.4578L37.1251 15.3423C37.0961 15.4003 37.0685 15.4581 37.0409 15.516L36.5862 16.4902L35.4881 18.7846C35.4329 18.8975 35.3748 19.0119 35.3196 19.1262C35.0074 19.7747 34.6877 20.4203 34.3726 21.0674C33.9993 21.8288 33.6085 22.583 33.2265 23.3415C33.0333 23.7193 32.8445 24.1 32.647 24.4749L32.0544 25.604L31.6883 26.2989C31.0027 28.696 30.5133 30.9715 30.2721 32.6825C30.2503 32.8346 30.2285 32.9822 30.2023 33.1255C30.3185 33.2181 30.4333 33.3122 30.5452 33.4078C30.7979 33.6191 31.0506 33.8276 31.2961 34.0461C31.5416 34.2619 31.7914 34.4746 32.0311 34.6975C32.2707 34.9205 32.5177 35.136 32.753 35.362C32.8416 35.4473 32.9317 35.5313 33.0202 35.6153C33.183 35.0998 33.363 34.4876 33.5562 33.8174V33.816C33.5011 33.771 33.4473 33.7247 33.3921 33.6771C33.2352 33.5424 33.0813 33.399 32.9259 33.2572C32.9026 33.2355 32.8794 33.2124 32.8546 33.1892C32.8546 33.1921 32.8532 33.1936 32.8517 33.195C32.8517 33.1936 32.8517 33.1907 32.8531 33.1878C32.7254 33.0662 32.5975 32.9446 32.4755 32.8201C32.3288 32.6739 32.1894 32.5248 32.0557 32.38C31.7884 32.0891 31.5502 31.8039 31.3542 31.552C31.1581 31.3002 31.0055 31.0787 30.9039 30.918C30.8515 30.8398 30.8138 30.7733 30.7876 30.7298C30.7615 30.685 30.7484 30.6618 30.7484 30.6618C30.7484 30.6618 30.7731 30.6733 30.8196 30.6966C30.8646 30.7197 30.9344 30.7516 31.0157 30.7993C31.0622 30.8254 31.1144 30.8543 31.1697 30.8876C31.2089 30.7718 31.2728 30.5836 31.3628 30.3303C31.4413 30.1146 31.5342 29.8497 31.649 29.5515C31.7623 29.2519 31.8902 28.9146 32.0383 28.5498C32.108 28.3747 32.1806 28.1937 32.2562 28.0055C32.2184 27.9578 32.1879 27.9172 32.1632 27.8868C32.1327 27.8449 32.1152 27.8232 32.1152 27.8232C32.1152 27.8232 32.1428 27.8319 32.1923 27.8492C32.2199 27.8607 32.2591 27.8752 32.3026 27.8926C32.3709 27.7233 32.4421 27.5495 32.5162 27.373C32.6904 26.9575 32.8778 26.5204 33.0753 26.0702C33.2729 25.6199 33.4777 25.1568 33.6942 24.6877C33.9076 24.2187 34.1313 23.7454 34.3536 23.2705C34.5817 22.7987 34.8068 22.3254 35.0362 21.8636C35.2644 21.4018 35.4939 20.9487 35.719 20.5116C35.9427 20.0744 36.1635 19.6532 36.3755 19.2565C36.5876 18.8584 36.7953 18.485 36.987 18.1419C37.1758 17.796 37.3574 17.4833 37.5187 17.2068C37.677 16.9289 37.8236 16.69 37.9413 16.4917C38.059 16.2934 38.1578 16.1414 38.2217 16.0357C38.2798 15.9445 38.3146 15.8909 38.3234 15.8794C38.319 15.8925 38.2986 15.9532 38.2652 16.056C38.2231 16.1732 38.1679 16.3455 38.0881 16.5612C38.0096 16.7783 37.9181 17.0418 37.8019 17.34C37.6886 17.6396 37.5608 17.9784 37.4126 18.3417C37.2674 18.7079 37.109 19.1045 36.9347 19.52C36.7604 19.9354 36.5745 20.3725 36.377 20.8213C36.2128 21.1963 36.04 21.5813 35.8642 21.9693C35.9078 21.975 35.9732 21.9809 36.0516 21.9953C36.2157 22.0185 36.4452 22.0633 36.7154 22.1314C36.9841 22.2009 37.2906 22.2935 37.6131 22.4107C37.6712 22.431 37.7292 22.4542 37.7888 22.4759C37.9805 22.1082 38.1723 21.7434 38.3611 21.3917C38.5834 20.9763 38.8027 20.5767 39.0133 20.1931C38.9784 20.1772 38.9421 20.1627 38.9073 20.1482C38.5761 20.0077 38.2725 19.8602 38.0154 19.7226C37.7597 19.5837 37.5506 19.4549 37.4054 19.3578C37.3327 19.3116 37.2775 19.2681 37.2398 19.2421C37.202 19.2131 37.1816 19.1986 37.1816 19.1986C37.1816 19.1986 37.2063 19.1986 37.2542 19.1972C37.3008 19.2001 37.3705 19.1972 37.4577 19.203C37.6305 19.2116 37.876 19.2305 38.165 19.2725C38.4541 19.3145 38.7852 19.3752 39.1353 19.4592C39.2181 19.4794 39.3023 19.4997 39.388 19.5214C39.5449 19.2421 39.6989 18.9743 39.8441 18.7209C40.0214 18.4097 40.1898 18.1216 40.3467 17.8596C40.3104 17.8553 40.2727 17.8524 40.2378 17.848C39.8544 17.8046 39.4984 17.7468 39.1934 17.686C38.8884 17.6237 38.6341 17.5585 38.457 17.505C38.3683 17.4803 38.2986 17.4543 38.2522 17.4398C38.2042 17.4225 38.1796 17.4138 38.1796 17.4138C38.1796 17.4138 38.2042 17.4066 38.2537 17.3921C38.3016 17.382 38.3727 17.3603 38.4628 17.3429C38.6444 17.3009 38.9015 17.2531 39.2093 17.2126C39.5188 17.1721 39.8775 17.1388 40.2625 17.1229C40.4368 17.1142 40.6154 17.1098 40.797 17.1098C40.8507 17.0215 40.903 16.9361 40.9495 16.8594C41.0846 16.6365 41.1979 16.4642 41.272 16.3441C41.3388 16.2413 41.3795 16.1805 41.3882 16.166C41.3823 16.1819 41.3577 16.2499 41.3141 16.3658C41.2909 16.4266 41.2632 16.5004 41.2298 16.5872C41.7934 16.0068 42.4194 15.4842 43.1457 15.0007C43.904 14.4969 44.7101 14.2697 45.6063 14.1828C46.536 14.0931 49.7954 13.2159 50.0336 13.0653C49.9566 13.0624 49.8811 13.061 49.8041 13.0595L49.8042 13.0595Z" fill="#FEE3C7"/>
<path fill-rule="evenodd" clip-rule="evenodd" d="M45.1474 16.7363C45.0646 16.8738 44.9397 17.0721 44.7886 17.3283C44.7378 17.4137 44.6812 17.5079 44.6245 17.6034C44.578 17.5889 44.5199 17.5701 44.4459 17.5484C44.2686 17.4948 44.0144 17.4282 43.7094 17.3659C43.4044 17.3052 43.0485 17.2473 42.6665 17.2039C42.4747 17.1836 42.2772 17.1633 42.0767 17.1503C41.8748 17.1344 41.6701 17.1257 41.4653 17.117C41.3185 17.1126 41.1719 17.1098 41.0251 17.1098C41.0499 17.0475 41.0731 16.9881 41.0963 16.9317C41.1936 16.6899 41.2633 16.496 41.3142 16.3658C41.3577 16.2499 41.3824 16.1819 41.3882 16.166C41.3796 16.1804 41.3389 16.2413 41.272 16.3441C41.198 16.4641 41.0847 16.6365 40.9496 16.8593C40.9031 16.9361 40.8508 17.0215 40.7971 17.1098C40.6155 17.1098 40.4369 17.1141 40.2625 17.1228C39.8776 17.1387 39.5189 17.172 39.2094 17.2126C38.9016 17.253 38.6445 17.3009 38.4629 17.3428C38.3728 17.3602 38.3016 17.3819 38.2537 17.392C38.2043 17.4065 38.1796 17.4137 38.1796 17.4137C38.1796 17.4137 38.2043 17.4224 38.2523 17.4398C38.2987 17.4543 38.3684 17.4803 38.4571 17.505C38.6342 17.5585 38.8884 17.6237 39.1935 17.6859C39.4985 17.7467 39.8544 17.8046 40.2378 17.848C40.2728 17.8524 40.3105 17.8553 40.3468 17.8596C40.1899 18.1216 40.0215 18.4097 39.8442 18.7209C39.6989 18.9742 39.545 19.242 39.3881 19.5214C39.3024 19.4997 39.2182 19.4794 39.1354 19.4592C38.7853 19.3752 38.4542 19.3144 38.1651 19.2725C37.8761 19.2304 37.6306 19.2116 37.4578 19.203C37.3706 19.1971 37.3009 19.2001 37.2543 19.1972C37.2064 19.1986 37.1817 19.1986 37.1817 19.1986C37.1817 19.1986 37.2021 19.2131 37.2399 19.2421C37.2776 19.2681 37.3328 19.3115 37.4054 19.3578C37.5507 19.4548 37.7598 19.5836 38.0155 19.7226C38.2726 19.8601 38.5761 20.0077 38.9074 20.1482C38.9422 20.1627 38.9785 20.1772 39.0134 20.1931C38.8027 20.5766 38.5835 20.9762 38.3612 21.3916C38.1724 21.7434 37.9806 22.1082 37.7889 22.4759C37.7293 22.4542 37.6713 22.431 37.6132 22.4107C37.2906 22.2934 36.9842 22.2009 36.7155 22.1313C36.4453 22.0633 36.2158 22.0184 36.0517 21.9953C35.9732 21.9808 35.9079 21.975 35.8643 21.9692C36.0401 21.5812 36.2129 21.1962 36.377 20.8213C36.5746 20.3725 36.7605 19.9353 36.9348 19.52C37.1091 19.1045 37.2675 18.7078 37.4127 18.3416C37.5609 17.9783 37.6887 17.6396 37.8019 17.3399C37.9182 17.0417 38.0097 16.7783 38.0881 16.5612C38.168 16.3454 38.2232 16.1732 38.2653 16.056C38.2987 15.9532 38.319 15.8924 38.3234 15.8794C38.3147 15.8909 38.2798 15.9445 38.2218 16.0357C38.1578 16.1413 38.0591 16.2934 37.9414 16.4917C37.8237 16.69 37.6771 16.9289 37.5187 17.2068C37.3575 17.4832 37.1759 17.7959 36.9871 18.1419C36.7954 18.485 36.5877 18.8584 36.3756 19.2565C36.1635 19.6531 35.9428 20.0744 35.719 20.5115C35.4939 20.9487 35.2644 21.4018 35.0363 21.8636C34.8069 22.3253 34.5817 22.7987 34.3537 23.2705C34.1314 23.7454 33.9077 24.2187 33.6943 24.6877C33.4778 25.1567 33.273 25.6199 33.0754 26.0701C32.8779 26.5203 32.6905 26.9575 32.5163 27.3729C32.4422 27.5495 32.371 27.7232 32.3027 27.8926C32.2592 27.8752 32.22 27.8607 32.1923 27.8492C32.1429 27.8318 32.1153 27.8231 32.1153 27.8231C32.1153 27.8231 32.1328 27.8448 32.1633 27.8868C32.1879 27.9172 32.2185 27.9578 32.2563 28.0055C32.1807 28.1937 32.1081 28.3746 32.0384 28.5498C31.8902 28.9146 31.7623 29.2518 31.6491 29.5515C31.5343 29.8497 31.4414 30.1146 31.3629 30.3302C31.2729 30.5836 31.209 30.7718 31.1698 30.8875C31.1145 30.8543 31.0623 30.8254 31.0158 30.7993C30.9345 30.7515 30.8647 30.7196 30.8197 30.6965C30.7732 30.6733 30.7485 30.6617 30.7485 30.6617C30.7485 30.6617 30.7616 30.6849 30.7877 30.7298C30.8139 30.7732 30.8516 30.8398 30.9039 30.9179C31.0056 31.0787 31.1582 31.3001 31.3542 31.552C31.5503 31.8039 31.7885 32.0891 32.0557 32.38C32.1894 32.5248 32.3289 32.6738 32.4755 32.8201C32.5975 32.9445 32.7254 33.0662 32.8532 33.1878C32.8518 33.1906 32.8518 33.1936 32.8518 33.1949C32.8532 33.1935 32.8547 33.192 32.8547 33.1892C32.8795 33.2124 32.9027 33.2355 32.9259 33.2572C33.0814 33.399 33.2353 33.5423 33.3922 33.677C33.5476 33.813 33.706 33.9433 33.8599 34.0663C34.1693 34.3139 34.4685 34.5324 34.7344 34.7105C35.0001 34.8885 35.2311 35.026 35.3981 35.1172C35.5652 35.2084 35.6654 35.2548 35.6654 35.2548C35.6654 35.2548 35.6131 35.1564 35.51 34.9971C35.4083 34.8379 35.2558 34.6164 35.0611 34.3631C34.865 34.1113 34.6268 33.826 34.3596 33.5351C34.226 33.3904 34.0864 33.2413 33.9383 33.0965C33.7945 32.9474 33.6406 32.8042 33.4881 32.6594C33.4256 32.6014 33.3631 32.5436 33.2992 32.4871C33.4343 32.2671 33.5984 32.0022 33.7786 31.6967C33.966 31.3841 34.1751 31.0309 34.3959 30.6415C34.4758 30.5025 34.56 30.3563 34.6443 30.2087C34.8113 30.3302 34.9783 30.4533 35.1483 30.5677C35.3211 30.6878 35.4969 30.8007 35.6669 30.9092C36.0067 31.125 36.3364 31.3117 36.6255 31.4622C36.9146 31.6142 37.1644 31.7272 37.3431 31.801C37.3474 31.8024 37.3532 31.8039 37.3576 31.8068C37.1934 32.1715 37.041 32.5218 36.8971 32.8534C36.6895 33.3194 36.5079 33.7508 36.3481 34.1329C36.1854 34.5152 36.0503 34.8509 35.9385 35.1274C35.7293 35.6456 35.6116 35.9597 35.5972 35.9959C35.6218 35.9584 35.8005 35.676 36.0851 35.1998C36.2377 34.9436 36.425 34.6338 36.6299 34.2733C36.8391 33.9144 37.0729 33.5091 37.3198 33.0618C37.5711 32.6174 37.8413 32.1354 38.1172 31.62C38.3947 31.1062 38.691 30.5662 38.9844 30.0002C39.2763 29.4342 39.5916 28.8552 39.8893 28.256C40.1915 27.6596 40.4979 27.053 40.8044 26.4465C41.1036 25.8356 41.4014 25.2247 41.6949 24.624C41.9912 24.0247 42.2642 23.424 42.5373 22.8493C42.8133 22.2746 43.0645 21.7115 43.3057 21.1803C43.5497 20.649 43.7719 20.1424 43.9753 19.6748C44.1815 19.2087 44.3631 18.7773 44.5244 18.3952C44.687 18.013 44.8221 17.6773 44.934 17.4007C45.0473 17.1257 45.13 16.9057 45.1896 16.7565C45.239 16.6263 45.268 16.5481 45.2753 16.5322C45.2637 16.5496 45.2201 16.6191 45.1475 16.7363H45.1474ZM34.4161 25.0279C34.6456 24.5661 34.8708 24.0942 35.0988 23.6223C35.3211 23.1475 35.5447 22.6742 35.7583 22.2051C35.7874 22.1415 35.8149 22.0792 35.844 22.0155C35.8759 22.0459 35.921 22.0908 35.982 22.1415C36.1069 22.2515 36.2884 22.3991 36.5136 22.5613C36.7387 22.7219 37.0089 22.8971 37.3052 23.0679C37.3502 23.094 37.3953 23.1185 37.4417 23.1446C37.2108 23.5919 36.9813 24.0436 36.7518 24.4981C36.4991 25.0047 36.2463 25.5113 36.0038 26.0151C35.9369 25.9789 35.8715 25.9427 35.8062 25.908C35.4736 25.7329 35.154 25.5837 34.8737 25.4665C34.6558 25.3739 34.4626 25.3029 34.3058 25.2508C34.3421 25.1755 34.3798 25.1032 34.4161 25.0279ZM33.9731 30.4316C33.793 30.8412 33.6362 31.219 33.4967 31.5563C33.3674 31.8647 33.2599 32.1368 33.167 32.3684C33.1191 32.325 33.0711 32.2815 33.0217 32.2396C32.8649 32.1035 32.708 31.9732 32.5526 31.8502C32.2446 31.6027 31.9454 31.3841 31.6796 31.206C31.4995 31.0859 31.3382 30.986 31.2003 30.9049C31.2642 30.8022 31.3716 30.6328 31.5111 30.4012C31.6302 30.2029 31.7755 29.9641 31.9352 29.6861C32.0965 29.4096 32.2765 29.0969 32.4654 28.7511C32.522 28.6511 32.5802 28.5483 32.6383 28.4426C32.6993 28.5093 32.7647 28.5787 32.8358 28.6511C33.0638 28.8842 33.3384 29.1433 33.6434 29.4067C33.7959 29.5399 33.9542 29.673 34.1198 29.8048C34.1504 29.8294 34.1823 29.8525 34.2128 29.8772C34.13 30.0668 34.0501 30.2535 33.9731 30.4316ZM34.5527 29.1085C34.5498 29.1172 34.5469 29.123 34.544 29.1302C34.3871 29.0246 34.2302 28.9218 34.0777 28.8248C33.7364 28.6091 33.4081 28.4224 33.1191 28.2719C33.0115 28.2154 32.9113 28.1662 32.8154 28.1198C32.9012 27.9635 32.9897 27.8029 33.0769 27.6364C33.289 27.2398 33.5112 26.8185 33.7349 26.3813C33.8889 26.0817 34.0443 25.7733 34.1997 25.4621C34.3116 25.578 34.4524 25.7155 34.618 25.8646C34.8432 26.0687 35.1148 26.2945 35.414 26.5203C35.4969 26.5826 35.5826 26.6462 35.6697 26.7085C35.5171 27.024 35.369 27.3382 35.2252 27.6451C34.9884 28.1517 34.7633 28.6425 34.5527 29.1085ZM38.3336 29.6788C38.0591 30.2535 37.8078 30.8167 37.5652 31.3479C37.5187 31.4507 37.4722 31.552 37.4272 31.6533C37.3052 31.5043 37.1295 31.3059 36.9102 31.0815C36.682 30.8485 36.4075 30.5893 36.1025 30.3259C35.95 30.1942 35.7902 30.0596 35.6247 29.9279C35.4606 29.7961 35.2891 29.6673 35.1177 29.537C35.0959 29.5211 35.0727 29.5052 35.0509 29.4878C35.0698 29.4545 35.0887 29.4197 35.1076 29.385C35.3559 28.9377 35.6145 28.4629 35.8788 27.9708C36.0226 27.7015 36.1694 27.4265 36.316 27.1471C36.3364 27.1616 36.3581 27.1746 36.3785 27.1891C36.5485 27.2948 36.717 27.4004 36.8883 27.4988C37.0568 27.5988 37.2283 27.6913 37.3938 27.7797C37.7264 27.9549 38.046 28.1039 38.3264 28.2212C38.5544 28.3167 38.7548 28.3905 38.916 28.4441C38.7171 28.861 38.5253 29.2765 38.3336 29.6788ZM40.0679 26.0817C39.7687 26.6925 39.4709 27.3035 39.1775 27.9042C39.1224 28.0156 39.0686 28.1271 39.0148 28.2386C38.9001 28.1198 38.7548 27.9766 38.582 27.8202C38.3569 27.6161 38.0866 27.3917 37.786 27.1659C37.6364 27.053 37.481 26.9372 37.3183 26.8272C37.157 26.7142 36.9885 26.6057 36.8215 26.4971C36.7794 26.4711 36.7372 26.445 36.6952 26.419C36.9609 25.908 37.2239 25.3855 37.4882 24.8643C37.7119 24.4127 37.9356 23.9625 38.1534 23.5138C38.1869 23.5296 38.2203 23.5456 38.2537 23.5615C38.4193 23.6368 38.5849 23.7121 38.7505 23.7801C38.916 23.8496 39.0816 23.9118 39.2414 23.9712C39.5639 24.087 39.8718 24.181 40.1405 24.2491C40.4093 24.3186 40.6402 24.362 40.8043 24.3866C40.8464 24.3924 40.8843 24.3982 40.9177 24.4026C40.6373 24.957 40.3526 25.52 40.0679 26.0817ZM41.8894 22.5294C41.596 23.0954 41.2822 23.6744 40.983 24.2723C40.9757 24.2867 40.9685 24.3012 40.9612 24.3157C40.9365 24.2925 40.9075 24.2679 40.8741 24.2375C40.7491 24.1275 40.5676 23.9799 40.3425 23.8178C40.1173 23.6571 39.8471 23.4819 39.5508 23.3111C39.4026 23.2257 39.2487 23.1388 39.089 23.0578C38.9306 22.9738 38.7665 22.8971 38.6023 22.8189C38.5719 22.8044 38.5413 22.7915 38.5094 22.777C38.6822 22.418 38.8507 22.0633 39.0134 21.7159C39.2226 21.27 39.4201 20.8372 39.6089 20.4218C39.7251 20.4638 39.8428 20.5043 39.9604 20.5448C40.1434 20.6027 40.325 20.662 40.5066 20.7113C40.6881 20.7649 40.8683 20.8097 41.0425 20.8516C41.3926 20.9356 41.7252 20.9979 42.0143 21.0384C42.2671 21.0746 42.4834 21.0949 42.6519 21.1036C42.405 21.5596 42.145 22.0343 41.8894 22.5294ZM44.2425 18.2563C44.0348 18.6152 43.801 19.0205 43.554 19.4664C43.3042 19.9122 43.0325 20.3943 42.7566 20.9096C42.7522 20.9168 42.7478 20.9256 42.7434 20.9327C42.6011 20.8372 42.405 20.7171 42.1639 20.5867C41.9068 20.4493 41.6032 20.3016 41.272 20.1612C41.1064 20.0903 40.9336 20.0208 40.7579 19.9557C40.5807 19.8877 40.4006 19.8283 40.219 19.766C40.126 19.7371 40.0331 19.7067 39.9401 19.6777C40.0549 19.4201 40.1623 19.1682 40.2654 18.9308C40.431 18.5558 40.5749 18.207 40.7056 17.8929C40.7462 17.8958 40.7869 17.9002 40.8276 17.9031C41.028 17.919 41.2328 17.9276 41.4376 17.9363C41.6424 17.9406 41.8472 17.9479 42.0477 17.945C42.2496 17.9464 42.4486 17.9392 42.6403 17.9319C43.0252 17.9146 43.3855 17.8828 43.6934 17.8422C44.0013 17.8017 44.2599 17.7525 44.4401 17.7119C44.4938 17.6989 44.5402 17.6888 44.5795 17.6786C44.4763 17.8538 44.363 18.0449 44.2425 18.2563Z" fill="#1B1918"/>
<path fill-rule="evenodd" clip-rule="evenodd" d="M34.5003 12.0158C34.1634 11.4904 33.8148 10.9736 33.4575 10.4612C32.7428 9.43919 31.9875 8.44327 31.1756 7.49222C30.3621 6.54268 29.492 5.63505 28.5203 4.83021C28.4012 4.72745 28.2734 4.63478 28.15 4.53632C28.0279 4.43793 27.8987 4.34667 27.7694 4.25549C27.6401 4.16434 27.5123 4.07168 27.3757 3.9892C27.2392 3.90662 27.1114 3.81403 26.969 3.74017C26.8296 3.6649 26.693 3.58383 26.5493 3.5143C26.404 3.44634 26.2602 3.37828 26.1135 3.31318L25.6617 3.14523L25.1941 3.01785L25.0546 2.98019L24.982 3.11625C24.4853 4.05575 23.9856 4.99519 23.4786 5.93177L21.9651 8.74583C21.4581 9.68383 20.9614 10.6262 20.4617 11.5671C19.962 12.508 19.4638 13.4504 18.9758 14.397L18.2379 15.8142C17.9895 16.2861 17.7469 16.7594 17.5087 17.2357L16.7869 18.663C16.5486 19.1378 16.3046 19.6112 16.0693 20.0903L14.6792 22.9695C14.4526 23.4515 14.2434 23.9408 14.0241 24.4272L13.3589 25.9225L13.401 25.9297C13.6915 25.9804 13.982 26.0238 14.271 26.0802L15.1309 26.2858L15.9807 26.5304C16.2639 26.6115 16.5428 26.71 16.8231 26.7997C17.1049 26.888 17.3823 26.9879 17.6597 27.0877C17.9372 27.1891 18.2175 27.2803 18.4921 27.3859L19.3215 27.6972L20.145 28.02C20.4196 28.1271 20.6926 28.24 20.9658 28.3529C21.2373 28.4644 21.5119 28.5744 21.782 28.6916L22.597 29.0376L23.4089 29.3922C24.491 29.8613 25.5688 30.3462 26.6321 30.8485L26.8674 30.9599L26.9879 30.7254L28.07 28.628L29.0388 26.7446C29.2975 25.7763 29.5516 24.7978 29.8087 23.8293L28.5944 26.2525L27.5486 28.3674L26.619 30.2535C25.6153 29.8048 24.6086 29.3749 23.5933 28.9566C23.0443 28.7336 22.4938 28.5165 21.9404 28.3037C21.6644 28.1951 21.3855 28.0938 21.1081 27.9895C20.8306 27.8854 20.5532 27.7812 20.2743 27.6827L19.4362 27.383L18.5938 27.0979C18.3134 27.0008 18.0287 26.9155 17.7454 26.8287C17.4622 26.7403 17.179 26.6535 16.8929 26.5768C16.6053 26.4986 16.322 26.4117 16.033 26.3437L15.1672 26.1352L14.2914 25.9717C14.011 25.9326 13.7293 25.9051 13.4489 25.8732L14.1011 24.4604C14.3263 23.9784 14.5412 23.4906 14.7751 23.0129L16.2015 20.1554C16.4426 19.682 16.6924 19.2116 16.9379 18.7383L17.6772 17.3226C17.9227 16.8507 18.1726 16.3802 18.4253 15.9127L19.182 14.5056C19.6832 13.5661 20.193 12.631 20.7058 11.6974L22.2439 8.89637L23.7851 6.09825C24.2775 5.21231 24.7626 4.32065 25.2463 3.42755L25.5412 3.51144L25.961 3.67218C26.099 3.73437 26.2341 3.80092 26.3706 3.86614C26.5057 3.93269 26.6349 4.01229 26.7686 4.08467C26.9022 4.15561 27.0257 4.24679 27.155 4.32648C27.2842 4.40605 27.4062 4.49723 27.5297 4.58699C27.6546 4.67525 27.7781 4.76505 27.8958 4.862C28.0148 4.95901 28.1383 5.05022 28.2531 5.15008C29.1885 5.94188 30.0353 6.84082 30.8255 7.78609C31.6171 8.72989 32.3535 9.7229 33.0508 10.7406C33.3979 11.2515 33.7364 11.7683 34.0632 12.2909C34.2069 12.521 34.3493 12.7527 34.4887 12.9843C34.6224 12.8627 34.7589 12.7498 34.8984 12.6455C34.7677 12.4341 34.6355 12.2243 34.5003 12.0158Z" fill="#1B1918"/>
<path fill-rule="evenodd" clip-rule="evenodd" d="M43.7638 36.5642C44.162 35.8259 44.5821 35.0472 45.0163 34.2418C45.8837 32.6301 46.8086 30.911 47.7338 29.1918C48.1993 28.3338 48.665 27.4758 49.1233 26.6312C49.5855 25.7885 50.0351 24.9566 50.459 24.1457C50.879 23.3329 51.2794 22.5442 51.645 21.7891C51.8289 21.4121 52.0078 21.0454 52.1808 20.6907C52.3502 20.3341 52.5138 19.9895 52.6706 19.6587C52.985 18.9972 53.2634 18.386 53.5106 17.8443C53.7557 17.3016 53.9666 16.8269 54.1361 16.434C54.4771 15.649 54.6587 15.1937 54.6587 15.1937C54.6658 15.1758 54.6595 15.1547 54.6426 15.1439C54.6235 15.1315 54.598 15.1369 54.5855 15.1561C54.5855 15.1561 54.3182 15.5674 53.8738 16.2991C53.6505 16.6644 53.3846 17.1106 53.0827 17.6242C52.7828 18.1387 52.4443 18.7191 52.0852 19.3576C51.9057 19.6767 51.7186 20.0092 51.525 20.3534C51.3352 20.6994 51.1388 21.0572 50.9371 21.425C50.5313 22.1594 50.1182 22.9416 49.6966 23.7536C49.2791 24.5677 48.8592 25.415 48.4377 26.2785C48.0123 27.1401 47.5804 28.0154 47.1484 28.8907C46.2781 30.6381 45.408 32.3855 44.5923 34.0236C44.185 34.8431 43.7915 35.6353 43.4183 36.3865C43.0477 37.139 42.6973 37.8505 42.3739 38.5073C41.0836 41.136 40.2235 42.8886 40.2235 42.8886C40.2138 42.9083 40.2215 42.9322 40.2408 42.9428C40.2607 42.9537 40.2857 42.9463 40.2967 42.9262C40.2967 42.9262 41.2317 41.2123 42.6345 38.6413C42.9843 37.9981 43.3631 37.3013 43.7638 36.5642Z" fill="#1B1918"/>
<path fill-rule="evenodd" clip-rule="evenodd" d="M10.0524 25.3704C10.1459 25.145 10.2469 24.9013 10.355 24.6408C10.5644 24.1178 10.8287 23.5382 11.11 22.9038C11.3869 22.2676 11.7082 21.5871 12.0442 20.8661C12.377 20.1438 12.7397 19.3869 13.1129 18.6035C13.4821 17.8182 13.8839 17.0155 14.2816 16.1957C14.681 15.3765 15.0995 14.55 15.511 13.7206C15.9321 12.8957 16.3533 12.0709 16.7678 11.259C17.1916 10.4514 17.6008 9.65305 17.9902 8.8772C18.3772 8.10007 18.7419 7.34426 19.0803 6.62374C19.2501 6.26367 19.4152 5.91348 19.575 5.57475C19.7317 5.23441 19.883 4.90561 20.0285 4.58996C20.1754 4.27506 20.3112 3.97073 20.4405 3.68137C20.5697 3.39198 20.6965 3.11949 20.8084 2.85982C21.0363 2.34236 21.2337 1.89063 21.392 1.51638C21.7106 0.768919 21.8815 0.335726 21.8815 0.335726C21.8885 0.31792 21.8824 0.297001 21.8657 0.28613C21.8465 0.273618 21.821 0.27894 21.8084 0.297991C21.8084 0.297991 21.5519 0.687106 21.1292 1.38214C20.9171 1.72931 20.6642 2.15321 20.3795 2.64228C20.0955 3.1318 19.7765 3.68477 19.4403 4.29406C19.272 4.59874 19.0968 4.916 18.9154 5.24446C18.7386 5.57523 18.5558 5.91721 18.368 6.26877C17.9885 6.97006 17.6104 7.72086 17.2211 8.49833C16.8376 9.27865 16.4577 10.0931 16.0744 10.922C15.6927 11.7514 15.3048 12.594 14.9169 13.4367C14.5325 14.2811 14.1414 15.1219 13.7688 15.9556C13.3976 16.7902 13.0225 17.6065 12.6789 18.4057C12.333 19.2039 11.9886 19.9706 11.6883 20.7098C11.3825 21.4462 11.0902 22.1409 10.8397 22.7907C10.5848 23.4384 10.3452 24.0294 10.1571 24.5635C9.96672 25.0963 9.78444 25.5541 9.666 25.9434C9.42018 26.7175 9.27975 27.1599 9.27975 27.1599C9.27319 27.1806 9.28398 27.2031 9.30457 27.2107C9.32585 27.2186 9.34965 27.2077 9.35746 27.1865L9.35831 27.1842C9.35831 27.1842 9.52 26.7509 9.80299 25.9924C9.87034 25.8019 9.9576 25.5953 10.0523 25.3703L10.0524 25.3704Z" fill="#1B1918"/>
<path fill-rule="evenodd" clip-rule="evenodd" d="M10.8116 25.5502C10.938 25.28 11.0724 24.9924 11.2142 24.6894C11.3637 24.3896 11.5208 24.0745 11.6848 23.7456C12.0128 23.0879 12.368 22.3756 12.7437 21.6221C12.931 21.2452 13.1233 20.858 13.3199 20.4623C13.5212 20.0686 13.7267 19.6664 13.9358 19.2575C14.354 18.4396 14.7861 17.5945 15.2251 16.7357C15.6604 15.8753 16.1198 15.0094 16.5724 14.1403C17.0292 13.2733 17.4861 12.4064 17.9359 11.5531C18.392 10.703 18.8405 9.86618 19.2606 9.04928C19.6781 8.23116 20.073 7.43592 20.439 6.6773C20.6231 6.2986 20.8022 5.93021 20.9756 5.57384C21.145 5.21558 21.3088 4.86938 21.4659 4.53703C21.6246 4.2054 21.7714 3.88485 21.9112 3.58012C22.0505 3.27513 22.188 2.9886 22.3094 2.71529C22.5566 2.17096 22.7694 1.69486 22.9405 1.30059C23.285 0.51313 23.4703 0.0570364 23.4703 0.0570364C23.4777 0.0389478 23.4714 0.017324 23.4544 0.00648217C23.4351 -0.0057467 23.4096 -0.000173094 23.3973 0.0189911C23.3973 0.0189911 23.331 0.122593 23.2066 0.316839C23.0822 0.511227 22.9022 0.797279 22.6786 1.1646C22.4539 1.53124 22.1861 1.97907 21.882 2.49455C21.579 3.01062 21.2396 3.59412 20.8803 4.23634C20.7004 4.55729 20.513 4.89163 20.319 5.23769C20.1288 5.58571 19.9321 5.94546 19.73 6.31533C19.3236 7.05399 18.9155 7.84358 18.4961 8.66169C18.0819 9.48244 17.6629 10.3352 17.2472 11.2066C16.8302 12.0775 16.4067 12.9621 15.9831 13.8467C15.5577 14.7305 15.1258 15.6107 14.717 16.4857C14.3047 17.3587 13.899 18.2179 13.5066 19.0494C13.3103 19.4651 13.1174 19.8739 12.9284 20.274C12.7455 20.6771 12.5667 21.0715 12.3926 21.4554C12.0471 22.2244 11.7204 22.9513 11.4188 23.6224C11.2681 23.9578 11.1237 24.2793 10.9862 24.5851C10.8565 24.8944 10.7334 25.1878 10.6177 25.4636C10.3882 26.0157 10.188 26.497 10.0232 26.8933C9.69526 27.6861 9.50802 28.1391 9.50802 28.1391C9.49964 28.1592 9.50859 28.1826 9.52858 28.1919C9.54915 28.2015 9.57369 28.1925 9.58318 28.1721L9.58403 28.1704C9.58403 28.1704 9.79241 27.7268 10.1571 26.9505C10.3385 26.5624 10.5589 26.091 10.8116 25.5503L10.8116 25.5502Z" fill="#1B1918"/>
<path fill-rule="evenodd" clip-rule="evenodd" d="M36.8143 11.4253C36.4613 10.6812 36.0691 9.96174 35.6508 9.26113C35.4416 8.91085 35.2266 8.56485 34.9986 8.22617C34.8882 8.05531 34.7749 7.88595 34.6572 7.7195C34.5411 7.55158 34.4263 7.38363 34.3058 7.21868C34.069 6.88717 33.8221 6.56288 33.5737 6.24009L33.1931 5.76243L32.7995 5.29629C32.5322 4.98796 32.2621 4.68255 31.9802 4.38863C31.8423 4.23809 31.6999 4.09194 31.5561 3.94859C31.4123 3.80383 31.2685 3.65906 31.1189 3.52012C30.824 3.2379 30.5161 2.96861 30.2038 2.70518C30.0441 2.57782 29.8901 2.44461 29.7259 2.32161C29.5618 2.19853 29.402 2.07256 29.2335 1.9539C29.065 1.83812 28.898 1.72087 28.7251 1.61078C28.5479 1.50514 28.3766 1.39369 28.1979 1.29238C27.8391 1.09406 27.4731 0.905839 27.0911 0.753855C26.8979 0.681473 26.7091 0.601899 26.5101 0.548313L26.2137 0.46005C26.1149 0.435394 26.0133 0.416565 25.913 0.394853C25.5121 0.303674 25.0982 0.284856 24.6915 0.287715C24.6727 0.28913 24.6552 0.297904 24.6435 0.313813C24.6421 0.3167 24.6392 0.318167 24.6363 0.321026C24.2892 0.90153 23.9434 1.48342 23.605 2.06826C23.2621 2.65159 22.9296 3.23932 22.5955 3.82701C22.2599 4.41326 21.9375 5.00675 21.6078 5.59739C21.2795 6.1865 20.9526 6.77861 20.6317 7.37355L19.6643 9.15402L18.7115 10.9417C18.3991 11.541 18.0839 12.1374 17.776 12.7396L16.8551 14.5432L15.9356 16.3498C15.6321 16.9535 15.3314 17.5571 15.0351 18.1636L14.1563 19.9904L13.937 20.4464L13.7293 20.9096L13.3167 21.836L12.499 23.6918L11.6856 25.5504L10.8663 27.4047C10.5947 28.0229 10.3129 28.6366 10.0326 29.2504L10.0297 29.2577C10.0195 29.2808 10.0137 29.3054 10.0122 29.3314C10.0035 29.4516 10.095 29.5544 10.2142 29.5631C10.9607 29.6108 11.7059 29.6615 12.4496 29.7179L13.5651 29.8106L14.6778 29.9177C15.4185 29.993 16.1608 30.0682 16.8987 30.1653L18.007 30.3114C18.3759 30.365 18.7434 30.42 19.1109 30.4779L20.2118 30.6603C20.5794 30.7196 20.9439 30.7949 21.31 30.863C21.6746 30.9296 22.0377 31.0091 22.4023 31.0844L22.9469 31.2002L23.4888 31.3262C23.8505 31.4101 24.2121 31.4912 24.5694 31.5867C24.9268 31.6823 25.2885 31.7648 25.6429 31.8705C25.9973 31.9732 26.3532 32.0717 26.7061 32.1788L27.3191 32.3713C27.4295 32.0775 27.5369 31.7764 27.6401 31.471L26.953 31.2885C26.5856 31.1974 26.2167 31.1206 25.8491 31.0367C25.4817 30.9512 25.1113 30.8891 24.7424 30.8138C24.3734 30.737 24.0029 30.6777 23.6326 30.614L23.0778 30.5185L22.5199 30.4345C22.1496 30.3795 21.7791 30.3201 21.4073 30.2738C21.0355 30.2275 20.665 30.1725 20.2932 30.1291L19.1777 29.9944C18.8058 29.9554 18.434 29.9149 18.0622 29.8713L16.9466 29.7556L14.7141 29.5399L12.4815 29.3416L11.3675 29.2374L10.5758 29.1563C10.8329 28.6453 11.0886 28.1358 11.3529 27.6292L12.284 25.8313L13.2224 24.0378L14.1549 22.2428L15.0845 20.4449L16.0184 18.6499C16.3263 18.0492 16.63 17.447 16.9306 16.842L17.8239 15.0268L18.7158 13.21L19.5931 11.3861L20.4821 9.56801L21.3565 7.74118C21.6499 7.13322 21.9375 6.5224 22.2222 5.91005C22.5069 5.29776 22.7974 4.68835 23.0763 4.07315C23.3551 3.45794 23.6456 2.84703 23.9202 2.23038C24.1961 1.62819 24.4634 1.02312 24.7292 0.416571C25.1112 0.455664 25.4889 0.51791 25.8491 0.640964C25.9436 0.671366 26.038 0.698879 26.1295 0.730669L26.4025 0.842144C26.587 0.910223 26.7598 1.00429 26.9356 1.08966C27.0243 1.13164 27.1099 1.17946 27.1956 1.23013L27.4498 1.37628C27.6197 1.47332 27.781 1.58912 27.9451 1.69477C28.1078 1.80474 28.2647 1.92488 28.423 2.0393C28.5799 2.15799 28.7295 2.28679 28.8835 2.40696C29.036 2.53145 29.1812 2.66467 29.3308 2.79206C29.479 2.92227 29.6184 3.06126 29.7637 3.19442C30.0455 3.46945 30.3215 3.75033 30.5873 4.04124C30.7238 4.18309 30.8545 4.33227 30.9838 4.47989C31.116 4.62605 31.2438 4.77512 31.3687 4.9286C31.6244 5.22968 31.867 5.54089 32.1081 5.85216C32.3463 6.1677 32.5787 6.48619 32.8082 6.8061C33.0348 7.1303 33.2585 7.45457 33.472 7.78608C33.5809 7.94964 33.6841 8.11759 33.7886 8.28545C33.8946 8.45196 33.9964 8.61985 34.0951 8.78922C34.1968 8.95861 34.297 9.128 34.3929 9.30019C34.4902 9.47106 34.5905 9.6404 34.6834 9.81268C35.0625 10.5017 35.414 11.2037 35.7249 11.9174C35.7539 11.984 35.783 12.052 35.8106 12.1186C36.0531 12.0158 36.3073 11.9362 36.5702 11.8827C36.6966 11.8567 36.839 11.8378 36.9972 11.8247C36.9391 11.6901 36.8767 11.5569 36.8143 11.4253Z" fill="#1B1918"/>
<path fill-rule="evenodd" clip-rule="evenodd" d="M46.6735 24.5663L43.0182 23.6204C43.0182 23.6204 39.6097 30.3419 39.4744 30.7659L42.2817 32.9677L46.6735 24.5663Z" fill="#1B1918"/>
<path fill-rule="evenodd" clip-rule="evenodd" d="M36.5702 11.8832C31.1832 12.9776 30.1598 24.7793 27.3068 32.4049C26.5014 34.5576 24.336 35.6718 20.8246 34.6156C21.1629 35.9115 21.9596 37.6308 21.7194 38.6613C23.1518 39.3288 25.8285 38.7922 27.0929 38.1473C28.8209 37.2664 29.8527 35.6534 30.2714 32.6828C31.1374 26.5396 35.2114 13.114 39.9829 12.9193C40.4885 12.8455 40.8788 12.7873 41.4476 12.7081C40.0737 11.894 37.6554 11.6627 36.5702 11.8832Z" fill="#E10028"/>
<path fill-rule="evenodd" clip-rule="evenodd" d="M49.1322 52.246V41.5878H58V52.246H54.7024V44.2523H52.4297V52.246H49.1322Z" fill="#1B1918"/>
<path fill-rule="evenodd" clip-rule="evenodd" d="M22.0916 14.1923C24.2569 14.8446 27.3099 16.3109 29.7591 18.4494C27.0968 19.2079 24.7539 20.2849 22.3756 22.2112C22.5886 19.3494 22.4466 17.1247 22.0916 14.1923Z" fill="#E10028"/>
</svg>
